<ttFont>
<head>
    <!-- Most of this table will be recalculated by the compiler -->
    <tableVersion value="1.0"/>
    <fontRevision value="1.0"/>
    <checkSumAdjustment value="0x6695f33e"/>
    <magicNumber value="0x5f0f3cf5"/>
    <flags value="00000000 00000011"/>
    <unitsPerEm value="1000"/>
    <created value="Sat Aug 11 10:52:12 2018"/>
    <modified value="Sat Sep 22 16:17:35 2018"/>
    <xMin value="-83"/>
    <yMin value="-249"/>
    <xMax value="953"/>
    <yMax value="749"/>
    <macStyle value="00000000 00000000"/>
    <lowestRecPPEM value="3"/>
    <fontDirectionHint value="2"/>
    <indexToLocFormat value="0"/>
    <glyphDataFormat value="0"/>
  </head>
    <TTGlyph name=".notdef" xMin="80" yMin="0" xMax="560" yMax="669">
      <contour>
        <pt x="80" y="0" on="1"/>
        <pt x="80" y="669" on="1"/>
        <pt x="560" y="669" on="1"/>
        <pt x="560" y="0" on="1"/>
      </contour>
      <contour>
        <pt x="320" y="383" on="1"/>
        <pt x="468" y="619" on="1"/>
        <pt x="172" y="619" on="1"/>
      </contour>
      <contour>
        <pt x="500" y="96" on="1"/>
        <pt x="500" y="573" on="1"/>
        <pt x="351" y="335" on="1"/>
      </contour>
      <contour>
        <pt x="140" y="96" on="1"/>
        <pt x="290" y="335" on="1"/>
        <pt x="140" y="573" on="1"/>
      </contour>
      <contour>
        <pt x="172" y="50" on="1"/>
        <pt x="468" y="50" on="1"/>
        <pt x="320" y="286" on="1"/>
      </contour>
    </TTGlyph>
    <TTGlyph name="A" xMin="5" yMin="0" xMax="653" yMax="674">
      <contour>
        <pt x="5" y="0" on="1"/>
        <pt x="5" y="41" on="1"/>
        <pt x="89" y="54" on="1"/>
        <pt x="302" y="674" on="1"/>
        <pt x="365" y="674" on="1"/>
        <pt x="578" y="50" on="1"/>
        <pt x="653" y="41" on="1"/>
        <pt x="653" y="0" on="1"/>
        <pt x="381" y="0" on="1"/>
        <pt x="381" y="41" on="1"/>
        <pt x="479" y="53" on="1"/>
        <pt x="424" y="217" on="1"/>
        <pt x="192" y="217" on="1"/>
        <pt x="137" y="54" on="1"/>
        <pt x="234" y="41" on="1"/>
        <pt x="234" y="0" on="1"/>
      </contour>
      <contour>
        <pt x="409" y="264" on="1"/>
        <pt x="309" y="561" on="1"/>
        <pt x="208" y="264" on="1"/>
      </contour>
    </TTGlyph>
    <TTGlyph name="B" xMin="44" yMin="0" xMax="586" yMax="669">
      <contour>
        <pt x="138" y="310" on="1"/>
        <pt x="138" y="359" on="1"/>
        <pt x="138" y="424" on="0"/>
        <pt x="138" y="553" on="0"/>
        <pt x="136" y="617" on="1"/>
        <pt x="44" y="628" on="1"/>
        <pt x="44" y="669" on="1"/>
        <pt x="334" y="669" on="1"/>
        <pt x="438" y="669" on="0"/>
        <pt x="552" y="577" on="0"/>
        <pt x="552" y="506" on="1"/>
        <pt x="552" y="453" on="0"/>
        <pt x="480" y="365" on="0"/>
        <pt x="397" y="348" on="1"/>
        <pt x="497" y="334" on="0"/>
        <pt x="586" y="244" on="0"/>
        <pt x="586" y="183" on="1"/>
        <pt x="586" y="138" on="0"/>
        <pt x="533" y="54" on="0"/>
        <pt x="415" y="0" on="0"/>
        <pt x="319" y="0" on="1"/>
        <pt x="44" y="0" on="1"/>
        <pt x="44" y="41" on="1"/>
        <pt x="136" y="52" on="1"/>
        <pt x="138" y="115" on="0"/>
        <pt x="138" y="245" on="0"/>
      </contour>
      <contour>
        <pt x="304" y="623" on="1"/>
        <pt x="235" y="623" on="1"/>
        <pt x="234" y="559" on="0"/>
        <pt x="233" y="428" on="0"/>
        <pt x="233" y="369" on="1"/>
        <pt x="285" y="369" on="1"/>
        <pt x="376" y="369" on="0"/>
        <pt x="458" y="431" on="0"/>
        <pt x="458" y="499" on="1"/>
        <pt x="458" y="567" on="0"/>
        <pt x="381" y="623" on="0"/>
      </contour>
      <contour>
        <pt x="288" y="323" on="1"/>
        <pt x="233" y="323" on="1"/>
        <pt x="233" y="244" on="0"/>
        <pt x="234" y="111" on="0"/>
        <pt x="235" y="47" on="1"/>
        <pt x="296" y="47" on="1"/>
        <pt x="392" y="47" on="0"/>
        <pt x="486" y="117" on="0"/>
        <pt x="486" y="183" on="1"/>
        <pt x="486" y="253" on="0"/>
        <pt x="392" y="323" on="0"/>
      </contour>
    </TTGlyph>
    <TTGlyph name="C" xMin="47" yMin="-15" xMax="592" yMax="684">
      <contour>
        <pt x="391" y="35" on="1"/>
        <pt x="420" y="35" on="0"/>
        <pt x="481" y="48" on="0"/>
        <pt x="510" y="62" on="1"/>
        <pt x="530" y="178" on="1"/>
        <pt x="592" y="178" on="1"/>
        <pt x="588" y="33" on="1"/>
        <pt x="542" y="8" on="0"/>
        <pt x="439" y="-15" on="0"/>
        <pt x="386" y="-15" on="1"/>
        <pt x="285" y="-15" on="0"/>
        <pt x="132" y="74" on="0"/>
        <pt x="47" y="232" on="0"/>
        <pt x="47" y="335" on="1"/>
        <pt x="47" y="411" on="0"/>
        <pt x="98" y="538" on="0"/>
        <pt x="189" y="632" on="0"/>
        <pt x="312" y="684" on="0"/>
        <pt x="385" y="684" on="1"/>
        <pt x="426" y="684" on="0"/>
        <pt x="528" y="665" on="0"/>
        <pt x="578" y="636" on="1"/>
        <pt x="582" y="491" on="1"/>
        <pt x="520" y="491" on="1"/>
        <pt x="500" y="607" on="1"/>
        <pt x="473" y="622" on="0"/>
        <pt x="422" y="634" on="0"/>
        <pt x="398" y="634" on="1"/>
        <pt x="331" y="634" on="0"/>
        <pt x="221" y="566" on="0"/>
        <pt x="156" y="433" on="0"/>
        <pt x="156" y="335" on="1"/>
        <pt x="156" y="237" on="0"/>
        <pt x="216" y="103" on="0"/>
        <pt x="323" y="35" on="0"/>
      </contour>
    </TTGlyph>
    <TTGlyph name="D" xMin="44" yMin="0" xMax="663" yMax="669">
      <contour>
        <pt x="138" y="322" on="1"/>
        <pt x="138" y="359" on="1"/>
        <pt x="138" y="424" on="0"/>
        <pt x="138" y="553" on="0"/>
        <pt x="136" y="617" on="1"/>
        <pt x="44" y="628" on="1"/>
        <pt x="44" y="669" on="1"/>
        <pt x="339" y="669" on="1"/>
        <pt x="435" y="669" on="0"/>
        <pt x="581" y="592" on="0"/>
        <pt x="663" y="443" on="0"/>
        <pt x="663" y="334" on="1"/>
        <pt x="663" y="226" on="0"/>
        <pt x="573" y="77" on="0"/>
        <pt x="418" y="0" on="0"/>
        <pt x="320" y="0" on="1"/>
        <pt x="44" y="0" on="1"/>
        <pt x="44" y="41" on="1"/>
        <pt x="136" y="52" on="1"/>
        <pt x="138" y="116" on="0"/>
        <pt x="138" y="249" on="0"/>
      </contour>
      <contour>
        <pt x="233" y="322" on="1"/>
        <pt x="233" y="249" on="0"/>
        <pt x="234" y="113" on="0"/>
        <pt x="235" y="47" on="1"/>
        <pt x="314" y="47" on="1"/>
        <pt x="430" y="47" on="0"/>
        <pt x="554" y="198" on="0"/>
        <pt x="554" y="334" on="1"/>
        <pt x="554" y="475" on="0"/>
        <pt x="432" y="623" on="0"/>
        <pt x="323" y="623" on="1"/>
        <pt x="235" y="623" on="1"/>
        <pt x="234" y="559" on="0"/>
        <pt x="233" y="426" on="0"/>
        <pt x="233" y="359" on="1"/>
      </contour>
    </TTGlyph>
    <TTGlyph name="E" xMin="44" yMin="0" xMax="569" yMax="669">
      <contour>
        <pt x="138" y="310" on="1"/>
        <pt x="138" y="359" on="1"/>
        <pt x="138" y="424" on="0"/>
        <pt x="138" y="553" on="0"/>
        <pt x="136" y="617" on="1"/>
        <pt x="44" y="628" on="1"/>
        <pt x="44" y="669" on="1"/>
        <pt x="542" y="669" on="1"/>
        <pt x="549" y="492" on="1"/>
        <pt x="492" y="492" on="1"/>
        <pt x="470" y="619" on="1"/>
        <pt x="235" y="619" on="1"/>
        <pt x="234" y="555" on="0"/>
        <pt x="233" y="427" on="0"/>
        <pt x="233" y="365" on="1"/>
        <pt x="380" y="365" on="1"/>
        <pt x="394" y="460" on="1"/>
        <pt x="440" y="460" on="1"/>
        <pt x="440" y="224" on="1"/>
        <pt x="394" y="224" on="1"/>
        <pt x="381" y="318" on="1"/>
        <pt x="233" y="318" on="1"/>
        <pt x="233" y="243" on="0"/>
        <pt x="234" y="112" on="0"/>
        <pt x="235" y="50" on="1"/>
        <pt x="490" y="50" on="1"/>
        <pt x="512" y="178" on="1"/>
        <pt x="569" y="178" on="1"/>
        <pt x="562" y="0" on="1"/>
        <pt x="44" y="0" on="1"/>
        <pt x="44" y="41" on="1"/>
        <pt x="136" y="52" on="1"/>
        <pt x="138" y="115" on="0"/>
        <pt x="138" y="245" on="0"/>
      </contour>
    </TTGlyph>
    <TTGlyph name="F" xMin="44" yMin="0" xMax="549" yMax="669">
      <contour>
        <pt x="138" y="310" on="1"/>
        <pt x="138" y="359" on="1"/>
        <pt x="138" y="424" on="0"/>
        <pt x="138" y="553" on="0"/>
        <pt x="136" y="617" on="1"/>
        <pt x="44" y="628" on="1"/>
        <pt x="44" y="669" on="1"/>
        <pt x="542" y="669" on="1"/>
        <pt x="549" y="492" on="1"/>
        <pt x="492" y="492" on="1"/>
        <pt x="470" y="619" on="1"/>
        <pt x="235" y="619" on="1"/>
        <pt x="234" y="555" on="0"/>
        <pt x="233" y="427" on="0"/>
        <pt x="233" y="365" on="1"/>
        <pt x="388" y="365" on="1"/>
        <pt x="402" y="460" on="1"/>
        <pt x="448" y="460" on="1"/>
        <pt x="448" y="214" on="1"/>
        <pt x="402" y="214" on="1"/>
        <pt x="388" y="318" on="1"/>
        <pt x="233" y="318" on="1"/>
        <pt x="233" y="244" on="0"/>
        <pt x="234" y="114" on="0"/>
        <pt x="235" y="52" on="1"/>
        <pt x="328" y="41" on="1"/>
        <pt x="328" y="0" on="1"/>
        <pt x="44" y="0" on="1"/>
        <pt x="44" y="41" on="1"/>
        <pt x="136" y="52" on="1"/>
        <pt x="138" y="115" on="0"/>
        <pt x="138" y="245" on="0"/>
      </contour>
    </TTGlyph>
    <TTGlyph name="G" xMin="47" yMin="-15" xMax="667" yMax="684">
      <contour>
        <pt x="604" y="88" on="1"/>
        <pt x="604" y="44" on="1"/>
        <pt x="552" y="17" on="0"/>
        <pt x="446" y="-15" on="0"/>
        <pt x="384" y="-15" on="1"/>
        <pt x="284" y="-15" on="0"/>
        <pt x="132" y="76" on="0"/>
        <pt x="47" y="234" on="0"/>
        <pt x="47" y="335" on="1"/>
        <pt x="47" y="436" on="0"/>
        <pt x="133" y="593" on="0"/>
        <pt x="286" y="684" on="0"/>
        <pt x="388" y="684" on="1"/>
        <pt x="450" y="684" on="0"/>
        <pt x="547" y="661" on="0"/>
        <pt x="589" y="637" on="1"/>
        <pt x="593" y="491" on="1"/>
        <pt x="531" y="491" on="1"/>
        <pt x="511" y="605" on="1"/>
        <pt x="459" y="634" on="0"/>
        <pt x="397" y="634" on="1"/>
        <pt x="328" y="634" on="0"/>
        <pt x="219" y="564" on="0"/>
        <pt x="156" y="431" on="0"/>
        <pt x="156" y="335" on="1"/>
        <pt x="156" y="192" on="0"/>
        <pt x="288" y="36" on="0"/>
        <pt x="403" y="36" on="1"/>
        <pt x="460" y="36" on="0"/>
        <pt x="510" y="56" on="1"/>
        <pt x="510" y="88" on="1"/>
        <pt x="510" y="133" on="0"/>
        <pt x="509" y="224" on="0"/>
        <pt x="508" y="269" on="1"/>
        <pt x="404" y="278" on="1"/>
        <pt x="404" y="318" on="1"/>
        <pt x="667" y="318" on="1"/>
        <pt x="667" y="278" on="1"/>
        <pt x="606" y="272" on="1"/>
        <pt x="605" y="227" on="0"/>
        <pt x="604" y="135" on="0"/>
      </contour>
    </TTGlyph>
    <TTGlyph name="H" xMin="44" yMin="0" xMax="744" yMax="669">
      <contour>
        <pt x="138" y="310" on="1"/>
        <pt x="138" y="359" on="1"/>
        <pt x="138" y="424" on="0"/>
        <pt x="138" y="553" on="0"/>
        <pt x="136" y="617" on="1"/>
        <pt x="44" y="628" on="1"/>
        <pt x="44" y="669" on="1"/>
        <pt x="326" y="669" on="1"/>
        <pt x="326" y="628" on="1"/>
        <pt x="235" y="618" on="1"/>
        <pt x="234" y="554" on="0"/>
        <pt x="233" y="426" on="0"/>
        <pt x="233" y="366" on="1"/>
        <pt x="556" y="366" on="1"/>
        <pt x="556" y="432" on="0"/>
        <pt x="556" y="556" on="0"/>
        <pt x="554" y="617" on="1"/>
        <pt x="462" y="628" on="1"/>
        <pt x="462" y="669" on="1"/>
        <pt x="744" y="669" on="1"/>
        <pt x="744" y="628" on="1"/>
        <pt x="652" y="617" on="1"/>
        <pt x="651" y="554" on="0"/>
        <pt x="650" y="424" on="0"/>
        <pt x="650" y="359" on="1"/>
        <pt x="650" y="310" on="1"/>
        <pt x="650" y="246" on="0"/>
        <pt x="651" y="117" on="0"/>
        <pt x="652" y="52" on="1"/>
        <pt x="744" y="41" on="1"/>
        <pt x="744" y="0" on="1"/>
        <pt x="462" y="0" on="1"/>
        <pt x="462" y="41" on="1"/>
        <pt x="554" y="52" on="1"/>
        <pt x="556" y="116" on="0"/>
        <pt x="556" y="249" on="0"/>
        <pt x="556" y="319" on="1"/>
        <pt x="233" y="319" on="1"/>
        <pt x="233" y="243" on="0"/>
        <pt x="234" y="113" on="0"/>
        <pt x="235" y="51" on="1"/>
        <pt x="326" y="41" on="1"/>
        <pt x="326" y="0" on="1"/>
        <pt x="44" y="0" on="1"/>
        <pt x="44" y="41" on="1"/>
        <pt x="136" y="52" on="1"/>
        <pt x="138" y="115" on="0"/>
        <pt x="138" y="245" on="0"/>
      </contour>
    </TTGlyph>
    <TTGlyph name="I" xMin="44" yMin="0" xMax="327" yMax="669">
      <contour>
        <pt x="138" y="310" on="1"/>
        <pt x="138" y="359" on="1"/>
        <pt x="138" y="424" on="0"/>
        <pt x="138" y="553" on="0"/>
        <pt x="136" y="617" on="1"/>
        <pt x="44" y="628" on="1"/>
        <pt x="44" y="669" on="1"/>
        <pt x="327" y="669" on="1"/>
        <pt x="327" y="628" on="1"/>
        <pt x="235" y="617" on="1"/>
        <pt x="234" y="554" on="0"/>
        <pt x="233" y="424" on="0"/>
        <pt x="233" y="359" on="1"/>
        <pt x="233" y="310" on="1"/>
        <pt x="233" y="246" on="0"/>
        <pt x="234" y="117" on="0"/>
        <pt x="235" y="52" on="1"/>
        <pt x="327" y="41" on="1"/>
        <pt x="327" y="0" on="1"/>
        <pt x="44" y="0" on="1"/>
        <pt x="44" y="41" on="1"/>
        <pt x="136" y="52" on="1"/>
        <pt x="138" y="115" on="0"/>
        <pt x="138" y="245" on="0"/>
      </contour>
    </TTGlyph>
    <TTGlyph name="J" xMin="-43" yMin="-163" xMax="340" yMax="669">
      <contour>
        <pt x="47" y="628" on="1"/>
        <pt x="47" y="669" on="1"/>
        <pt x="340" y="669" on="1"/>
        <pt x="340" y="628" on="1"/>
        <pt x="248" y="617" on="1"/>
        <pt x="247" y="554" on="0"/>
        <pt x="246" y="425" on="0"/>
        <pt x="246" y="360" on="1"/>
        <pt x="246" y="204" on="1"/>
        <pt x="246" y="147" on="0"/>
        <pt x="244" y="69" on="0"/>
        <pt x="238" y="12" on="0"/>
        <pt x="232" y="-14" on="1"/>
        <pt x="222" y="-64" on="0"/>
        <pt x="165" y="-130" on="0"/>
        <pt x="86" y="-163" on="0"/>
        <pt x="44" y="-163" on="1"/>
        <pt x="16" y="-163" on="0"/>
        <pt x="-35" y="-142" on="0"/>
        <pt x="-43" y="-114" on="1"/>
        <pt x="-38" y="-86" on="0"/>
        <pt x="-5" y="-64" on="0"/>
        <pt x="19" y="-64" on="1"/>
        <pt x="53" y="-64" on="0"/>
        <pt x="94" y="-95" on="1"/>
        <pt x="119" y="-115" on="1"/>
        <pt x="141" y="-94" on="0"/>
        <pt x="158" y="-36" on="0"/>
        <pt x="158" y="7" on="1"/>
        <pt x="158" y="25" on="0"/>
        <pt x="157" y="77" on="0"/>
        <pt x="155" y="161" on="0"/>
        <pt x="153" y="291" on="0"/>
        <pt x="150" y="483" on="0"/>
        <pt x="149" y="617" on="1"/>
      </contour>
    </TTGlyph>
    <TTGlyph name="K" xMin="44" yMin="0" xMax="662" yMax="669">
      <contour>
        <pt x="138" y="310" on="1"/>
        <pt x="138" y="359" on="1"/>
        <pt x="138" y="424" on="0"/>
        <pt x="138" y="553" on="0"/>
        <pt x="136" y="617" on="1"/>
        <pt x="44" y="628" on="1"/>
        <pt x="44" y="669" on="1"/>
        <pt x="326" y="669" on="1"/>
        <pt x="326" y="628" on="1"/>
        <pt x="231" y="617" on="1"/>
        <pt x="230" y="553" on="0"/>
        <pt x="229" y="424" on="0"/>
        <pt x="229" y="359" on="1"/>
        <pt x="229" y="296" on="1"/>
        <pt x="489" y="614" on="1"/>
        <pt x="417" y="628" on="1"/>
        <pt x="417" y="669" on="1"/>
        <pt x="647" y="669" on="1"/>
        <pt x="647" y="628" on="1"/>
        <pt x="550" y="615" on="1"/>
        <pt x="383" y="414" on="1"/>
        <pt x="585" y="51" on="1"/>
        <pt x="662" y="41" on="1"/>
        <pt x="662" y="0" on="1"/>
        <pt x="405" y="0" on="1"/>
        <pt x="405" y="41" on="1"/>
        <pt x="487" y="51" on="1"/>
        <pt x="328" y="348" on="1"/>
        <pt x="229" y="229" on="1"/>
        <pt x="229" y="189" on="0"/>
        <pt x="230" y="99" on="0"/>
        <pt x="231" y="52" on="1"/>
        <pt x="326" y="41" on="1"/>
        <pt x="326" y="0" on="1"/>
        <pt x="44" y="0" on="1"/>
        <pt x="44" y="41" on="1"/>
        <pt x="136" y="52" on="1"/>
        <pt x="138" y="115" on="0"/>
        <pt x="138" y="245" on="0"/>
      </contour>
    </TTGlyph>
    <TTGlyph name="L" xMin="44" yMin="0" xMax="552" yMax="669">
      <contour>
        <pt x="138" y="359" on="1"/>
        <pt x="138" y="424" on="0"/>
        <pt x="138" y="554" on="0"/>
        <pt x="136" y="617" on="1"/>
        <pt x="44" y="628" on="1"/>
        <pt x="44" y="669" on="1"/>
        <pt x="327" y="669" on="1"/>
        <pt x="327" y="628" on="1"/>
        <pt x="235" y="617" on="1"/>
        <pt x="234" y="553" on="0"/>
        <pt x="233" y="424" on="0"/>
        <pt x="233" y="359" on="1"/>
        <pt x="233" y="290" on="1"/>
        <pt x="233" y="237" on="0"/>
        <pt x="234" y="114" on="0"/>
        <pt x="235" y="50" on="1"/>
        <pt x="462" y="50" on="1"/>
        <pt x="491" y="188" on="1"/>
        <pt x="552" y="188" on="1"/>
        <pt x="542" y="0" on="1"/>
        <pt x="44" y="0" on="1"/>
        <pt x="44" y="41" on="1"/>
        <pt x="136" y="52" on="1"/>
        <pt x="138" y="117" on="0"/>
        <pt x="138" y="245" on="0"/>
        <pt x="138" y="309" on="1"/>
      </contour>
    </TTGlyph>
    <TTGlyph name="M" xMin="39" yMin="0" xMax="857" yMax="669">
      <contour>
        <pt x="39" y="0" on="1"/>
        <pt x="39" y="41" on="1"/>
        <pt x="129" y="54" on="1"/>
        <pt x="129" y="617" on="1"/>
        <pt x="39" y="628" on="1"/>
        <pt x="39" y="669" on="1"/>
        <pt x="224" y="669" on="1"/>
        <pt x="448" y="119" on="1"/>
        <pt x="660" y="669" on="1"/>
        <pt x="857" y="669" on="1"/>
        <pt x="857" y="628" on="1"/>
        <pt x="765" y="617" on="1"/>
        <pt x="764" y="554" on="0"/>
        <pt x="763" y="424" on="0"/>
        <pt x="763" y="359" on="1"/>
        <pt x="763" y="310" on="1"/>
        <pt x="763" y="246" on="0"/>
        <pt x="764" y="117" on="0"/>
        <pt x="765" y="52" on="1"/>
        <pt x="857" y="41" on="1"/>
        <pt x="857" y="0" on="1"/>
        <pt x="585" y="0" on="1"/>
        <pt x="585" y="41" on="1"/>
        <pt x="669" y="52" on="1"/>
        <pt x="671" y="115" on="0"/>
        <pt x="671" y="245" on="0"/>
        <pt x="671" y="309" on="1"/>
        <pt x="671" y="558" on="1"/>
        <pt x="454" y="0" on="1"/>
        <pt x="404" y="0" on="1"/>
        <pt x="175" y="558" on="1"/>
        <pt x="177" y="516" on="0"/>
        <pt x="179" y="430" on="0"/>
        <pt x="181" y="371" on="0"/>
        <pt x="181" y="369" on="1"/>
        <pt x="181" y="54" on="1"/>
        <pt x="263" y="41" on="1"/>
        <pt x="263" y="0" on="1"/>
      </contour>
    </TTGlyph>
    <TTGlyph name="N" xMin="39" yMin="-7" xMax="695" yMax="669">
      <contour>
        <pt x="39" y="0" on="1"/>
        <pt x="39" y="41" on="1"/>
        <pt x="124" y="53" on="1"/>
        <pt x="124" y="608" on="1"/>
        <pt x="116" y="620" on="1"/>
        <pt x="44" y="628" on="1"/>
        <pt x="44" y="669" on="1"/>
        <pt x="198" y="669" on="1"/>
        <pt x="559" y="173" on="1"/>
        <pt x="559" y="615" on="1"/>
        <pt x="454" y="628" on="1"/>
        <pt x="454" y="669" on="1"/>
        <pt x="695" y="669" on="1"/>
        <pt x="695" y="628" on="1"/>
        <pt x="610" y="615" on="1"/>
        <pt x="610" y="-7" on="1"/>
        <pt x="575" y="-7" on="1"/>
        <pt x="175" y="538" on="1"/>
        <pt x="175" y="55" on="1"/>
        <pt x="281" y="41" on="1"/>
        <pt x="281" y="0" on="1"/>
      </contour>
    </TTGlyph>
    <TTGlyph name="O" xMin="47" yMin="-15" xMax="660" yMax="684">
      <contour>
        <pt x="156" y="335" on="1"/>
        <pt x="156" y="278" on="0"/>
        <pt x="179" y="171" on="0"/>
        <pt x="227" y="86" on="0"/>
        <pt x="302" y="35" on="0"/>
        <pt x="354" y="35" on="1"/>
        <pt x="406" y="35" on="0"/>
        <pt x="481" y="86" on="0"/>
        <pt x="528" y="171" on="0"/>
        <pt x="550" y="278" on="0"/>
        <pt x="550" y="335" on="1"/>
        <pt x="550" y="391" on="0"/>
        <pt x="528" y="498" on="0"/>
        <pt x="481" y="584" on="0"/>
        <pt x="406" y="634" on="0"/>
        <pt x="354" y="634" on="1"/>
        <pt x="302" y="634" on="0"/>
        <pt x="227" y="584" on="0"/>
        <pt x="179" y="498" on="0"/>
        <pt x="156" y="391" on="0"/>
      </contour>
      <contour>
        <pt x="354" y="684" on="1"/>
        <pt x="412" y="684" on="0"/>
        <pt x="521" y="639" on="0"/>
        <pt x="608" y="551" on="0"/>
        <pt x="660" y="421" on="0"/>
        <pt x="660" y="335" on="1"/>
        <pt x="660" y="253" on="0"/>
        <pt x="609" y="123" on="0"/>
        <pt x="522" y="32" on="0"/>
        <pt x="412" y="-15" on="0"/>
        <pt x="354" y="-15" on="1"/>
        <pt x="296" y="-15" on="0"/>
        <pt x="186" y="30" on="0"/>
        <pt x="98" y="118" on="0"/>
        <pt x="47" y="249" on="0"/>
        <pt x="47" y="335" on="1"/>
        <pt x="47" y="417" on="0"/>
        <pt x="99" y="547" on="0"/>
        <pt x="186" y="637" on="0"/>
        <pt x="296" y="684" on="0"/>
      </contour>
    </TTGlyph>
    <TTGlyph name="P" xMin="44" yMin="0" xMax="567" yMax="669">
      <contour>
        <pt x="138" y="310" on="1"/>
        <pt x="138" y="359" on="1"/>
        <pt x="138" y="424" on="0"/>
        <pt x="138" y="553" on="0"/>
        <pt x="136" y="617" on="1"/>
        <pt x="44" y="628" on="1"/>
        <pt x="44" y="669" on="1"/>
        <pt x="313" y="669" on="1"/>
        <pt x="440" y="669" on="0"/>
        <pt x="567" y="558" on="0"/>
        <pt x="567" y="470" on="1"/>
        <pt x="567" y="414" on="0"/>
        <pt x="511" y="320" on="0"/>
        <pt x="388" y="264" on="0"/>
        <pt x="285" y="264" on="1"/>
        <pt x="233" y="264" on="1"/>
        <pt x="233" y="210" on="0"/>
        <pt x="234" y="106" on="0"/>
        <pt x="235" y="52" on="1"/>
        <pt x="328" y="41" on="1"/>
        <pt x="328" y="0" on="1"/>
        <pt x="44" y="0" on="1"/>
        <pt x="44" y="41" on="1"/>
        <pt x="136" y="52" on="1"/>
        <pt x="138" y="115" on="0"/>
        <pt x="138" y="245" on="0"/>
      </contour>
      <contour>
        <pt x="233" y="359" on="1"/>
        <pt x="233" y="311" on="1"/>
        <pt x="299" y="311" on="1"/>
        <pt x="390" y="311" on="0"/>
        <pt x="468" y="400" on="0"/>
        <pt x="468" y="470" on="1"/>
        <pt x="468" y="543" on="0"/>
        <pt x="385" y="623" on="0"/>
        <pt x="295" y="623" on="1"/>
        <pt x="235" y="623" on="1"/>
        <pt x="234" y="559" on="0"/>
        <pt x="233" y="426" on="0"/>
      </contour>
    </TTGlyph>
    <TTGlyph name="Q" xMin="47" yMin="-216" xMax="660" yMax="684">
      <contour>
        <pt x="500" y="-216" on="1"/>
        <pt x="437" y="-216" on="0"/>
        <pt x="348" y="-158" on="0"/>
        <pt x="302" y="-64" on="0"/>
        <pt x="302" y="-10" on="1"/>
        <pt x="234" y="2" on="0"/>
        <pt x="118" y="88" on="0"/>
        <pt x="47" y="233" on="0"/>
        <pt x="47" y="335" on="1"/>
        <pt x="47" y="417" on="0"/>
        <pt x="99" y="547" on="0"/>
        <pt x="186" y="637" on="0"/>
        <pt x="296" y="684" on="0"/>
        <pt x="354" y="684" on="1"/>
        <pt x="412" y="684" on="0"/>
        <pt x="521" y="639" on="0"/>
        <pt x="608" y="551" on="0"/>
        <pt x="660" y="421" on="0"/>
        <pt x="660" y="335" on="1"/>
        <pt x="660" y="235" on="0"/>
        <pt x="586" y="87" on="0"/>
        <pt x="466" y="-1" on="0"/>
        <pt x="396" y="-12" on="1"/>
        <pt x="398" y="-83" on="0"/>
        <pt x="472" y="-160" on="0"/>
        <pt x="534" y="-160" on="1"/>
        <pt x="549" y="-160" on="0"/>
        <pt x="588" y="-155" on="0"/>
        <pt x="612" y="-148" on="1"/>
        <pt x="623" y="-184" on="1"/>
        <pt x="598" y="-200" on="0"/>
        <pt x="531" y="-216" on="0"/>
      </contour>
      <contour>
        <pt x="156" y="335" on="1"/>
        <pt x="156" y="278" on="0"/>
        <pt x="179" y="171" on="0"/>
        <pt x="227" y="86" on="0"/>
        <pt x="302" y="35" on="0"/>
        <pt x="354" y="35" on="1"/>
        <pt x="406" y="35" on="0"/>
        <pt x="481" y="86" on="0"/>
        <pt x="528" y="171" on="0"/>
        <pt x="550" y="278" on="0"/>
        <pt x="550" y="335" on="1"/>
        <pt x="550" y="391" on="0"/>
        <pt x="528" y="498" on="0"/>
        <pt x="481" y="584" on="0"/>
        <pt x="406" y="634" on="0"/>
        <pt x="354" y="634" on="1"/>
        <pt x="302" y="634" on="0"/>
        <pt x="227" y="584" on="0"/>
        <pt x="179" y="498" on="0"/>
        <pt x="156" y="391" on="0"/>
      </contour>
    </TTGlyph>
    <TTGlyph name="R" xMin="44" yMin="-10" xMax="637" yMax="669">
      <contour>
        <pt x="138" y="310" on="1"/>
        <pt x="138" y="359" on="1"/>
        <pt x="138" y="424" on="0"/>
        <pt x="138" y="553" on="0"/>
        <pt x="136" y="617" on="1"/>
        <pt x="44" y="628" on="1"/>
        <pt x="44" y="669" on="1"/>
        <pt x="324" y="669" on="1"/>
        <pt x="439" y="669" on="0"/>
        <pt x="567" y="577" on="0"/>
        <pt x="567" y="494" on="1"/>
        <pt x="567" y="436" on="0"/>
        <pt x="483" y="340" on="0"/>
        <pt x="399" y="325" on="1"/>
        <pt x="443" y="316" on="0"/>
        <pt x="500" y="257" on="0"/>
        <pt x="517" y="198" on="1"/>
        <pt x="560" y="50" on="1"/>
        <pt x="637" y="41" on="1"/>
        <pt x="637" y="0" on="1"/>
        <pt x="622" y="-4" on="0"/>
        <pt x="585" y="-10" on="0"/>
        <pt x="562" y="-10" on="1"/>
        <pt x="515" y="-10" on="0"/>
        <pt x="468" y="18" on="0"/>
        <pt x="459" y="54" on="1"/>
        <pt x="419" y="214" on="1"/>
        <pt x="410" y="255" on="0"/>
        <pt x="376" y="296" on="0"/>
        <pt x="323" y="310" on="0"/>
        <pt x="282" y="310" on="1"/>
        <pt x="233" y="310" on="1"/>
        <pt x="233" y="238" on="0"/>
        <pt x="234" y="112" on="0"/>
        <pt x="235" y="52" on="1"/>
        <pt x="327" y="41" on="1"/>
        <pt x="327" y="0" on="1"/>
        <pt x="44" y="0" on="1"/>
        <pt x="44" y="41" on="1"/>
        <pt x="136" y="52" on="1"/>
        <pt x="138" y="115" on="0"/>
        <pt x="138" y="245" on="0"/>
      </contour>
      <contour>
        <pt x="321" y="623" on="1"/>
        <pt x="235" y="623" on="1"/>
        <pt x="234" y="557" on="0"/>
        <pt x="233" y="426" on="0"/>
        <pt x="233" y="355" on="1"/>
        <pt x="310" y="355" on="1"/>
        <pt x="391" y="355" on="0"/>
        <pt x="468" y="433" on="0"/>
        <pt x="468" y="493" on="1"/>
        <pt x="468" y="556" on="0"/>
        <pt x="398" y="623" on="0"/>
      </contour>
    </TTGlyph>
    <TTGlyph name="S" xMin="40" yMin="-15" xMax="472" yMax="684">
      <contour>
        <pt x="232" y="35" on="1"/>
        <pt x="303" y="35" on="0"/>
        <pt x="387" y="98" on="0"/>
        <pt x="387" y="156" on="1"/>
        <pt x="387" y="204" on="0"/>
        <pt x="328" y="257" on="0"/>
        <pt x="264" y="282" on="1"/>
        <pt x="225" y="298" on="1"/>
        <pt x="148" y="328" on="0"/>
        <pt x="53" y="423" on="0"/>
        <pt x="53" y="499" on="1"/>
        <pt x="53" y="557" on="0"/>
        <pt x="112" y="639" on="0"/>
        <pt x="214" y="684" on="0"/>
        <pt x="278" y="684" on="1"/>
        <pt x="328" y="684" on="0"/>
        <pt x="410" y="656" on="0"/>
        <pt x="442" y="632" on="1"/>
        <pt x="436" y="501" on="1"/>
        <pt x="375" y="501" on="1"/>
        <pt x="354" y="614" on="1"/>
        <pt x="317" y="634" on="0"/>
        <pt x="272" y="634" on="1"/>
        <pt x="215" y="634" on="0"/>
        <pt x="137" y="577" on="0"/>
        <pt x="137" y="521" on="1"/>
        <pt x="137" y="475" on="0"/>
        <pt x="196" y="415" on="0"/>
        <pt x="250" y="394" on="1"/>
        <pt x="290" y="379" on="1"/>
        <pt x="388" y="341" on="0"/>
        <pt x="472" y="246" on="0"/>
        <pt x="472" y="175" on="1"/>
        <pt x="472" y="116" on="0"/>
        <pt x="411" y="31" on="0"/>
        <pt x="305" y="-15" on="0"/>
        <pt x="235" y="-15" on="1"/>
        <pt x="179" y="-15" on="0"/>
        <pt x="75" y="16" on="0"/>
        <pt x="40" y="38" on="1"/>
        <pt x="46" y="178" on="1"/>
        <pt x="108" y="178" on="1"/>
        <pt x="128" y="60" on="1"/>
        <pt x="151" y="47" on="0"/>
        <pt x="200" y="35" on="0"/>
      </contour>
    </TTGlyph>
    <TTGlyph name="T" xMin="20" yMin="0" xMax="584" yMax="669">
      <contour>
        <pt x="255" y="310" on="1"/>
        <pt x="255" y="359" on="1"/>
        <pt x="255" y="424" on="0"/>
        <pt x="255" y="554" on="0"/>
        <pt x="253" y="619" on="1"/>
        <pt x="100" y="619" on="1"/>
        <pt x="78" y="491" on="1"/>
        <pt x="20" y="491" on="1"/>
        <pt x="28" y="669" on="1"/>
        <pt x="576" y="669" on="1"/>
        <pt x="584" y="491" on="1"/>
        <pt x="526" y="491" on="1"/>
        <pt x="504" y="619" on="1"/>
        <pt x="351" y="619" on="1"/>
        <pt x="350" y="555" on="0"/>
        <pt x="349" y="425" on="0"/>
        <pt x="349" y="359" on="1"/>
        <pt x="349" y="310" on="1"/>
        <pt x="349" y="246" on="0"/>
        <pt x="350" y="117" on="0"/>
        <pt x="351" y="52" on="1"/>
        <pt x="453" y="41" on="1"/>
        <pt x="453" y="0" on="1"/>
        <pt x="151" y="0" on="1"/>
        <pt x="151" y="41" on="1"/>
        <pt x="253" y="52" on="1"/>
        <pt x="255" y="116" on="0"/>
        <pt x="255" y="245" on="0"/>
      </contour>
    </TTGlyph>
    <TTGlyph name="U" xMin="39" yMin="-15" xMax="693" yMax="669">
      <contour>
        <pt x="218" y="281" on="1"/>
        <pt x="218" y="196" on="0"/>
        <pt x="259" y="97" on="0"/>
        <pt x="333" y="56" on="0"/>
        <pt x="384" y="56" on="1"/>
        <pt x="469" y="56" on="0"/>
        <pt x="555" y="165" on="0"/>
        <pt x="555" y="298" on="1"/>
        <pt x="555" y="615" on="1"/>
        <pt x="453" y="628" on="1"/>
        <pt x="453" y="669" on="1"/>
        <pt x="693" y="669" on="1"/>
        <pt x="693" y="628" on="1"/>
        <pt x="606" y="617" on="1"/>
        <pt x="606" y="274" on="1"/>
        <pt x="606" y="169" on="0"/>
        <pt x="544" y="42" on="0"/>
        <pt x="436" y="-15" on="0"/>
        <pt x="367" y="-15" on="1"/>
        <pt x="295" y="-15" on="0"/>
        <pt x="185" y="41" on="0"/>
        <pt x="124" y="159" on="0"/>
        <pt x="124" y="252" on="1"/>
        <pt x="124" y="360" on="1"/>
        <pt x="124" y="425" on="0"/>
        <pt x="124" y="554" on="0"/>
        <pt x="122" y="618" on="1"/>
        <pt x="39" y="628" on="1"/>
        <pt x="39" y="669" on="1"/>
        <pt x="322" y="669" on="1"/>
        <pt x="322" y="628" on="1"/>
        <pt x="220" y="616" on="1"/>
        <pt x="219" y="553" on="0"/>
        <pt x="218" y="425" on="0"/>
        <pt x="218" y="360" on="1"/>
      </contour>
    </TTGlyph>
    <TTGlyph name="V" xMin="15" yMin="-7" xMax="665" yMax="669">
      <contour>
        <pt x="323" y="-7" on="1"/>
        <pt x="90" y="619" on="1"/>
        <pt x="15" y="628" on="1"/>
        <pt x="15" y="669" on="1"/>
        <pt x="288" y="669" on="1"/>
        <pt x="288" y="624" on="1"/>
        <pt x="192" y="615" on="1"/>
        <pt x="360" y="135" on="1"/>
        <pt x="523" y="614" on="1"/>
        <pt x="434" y="624" on="1"/>
        <pt x="434" y="669" on="1"/>
        <pt x="665" y="669" on="1"/>
        <pt x="665" y="628" on="1"/>
        <pt x="578" y="616" on="1"/>
        <pt x="367" y="-7" on="1"/>
      </contour>
    </TTGlyph>
    <TTGlyph name="W" xMin="15" yMin="-7" xMax="953" yMax="669">
      <contour>
        <pt x="657" y="-7" on="1"/>
        <pt x="484" y="511" on="1"/>
        <pt x="321" y="-7" on="1"/>
        <pt x="278" y="-7" on="1"/>
        <pt x="98" y="618" on="1"/>
        <pt x="15" y="628" on="1"/>
        <pt x="15" y="669" on="1"/>
        <pt x="287" y="669" on="1"/>
        <pt x="287" y="628" on="1"/>
        <pt x="195" y="617" on="1"/>
        <pt x="318" y="158" on="1"/>
        <pt x="471" y="616" on="1"/>
        <pt x="370" y="628" on="1"/>
        <pt x="370" y="669" on="1"/>
        <pt x="642" y="669" on="1"/>
        <pt x="642" y="628" on="1"/>
        <pt x="541" y="616" on="1"/>
        <pt x="689" y="153" on="1"/>
        <pt x="817" y="615" on="1"/>
        <pt x="726" y="628" on="1"/>
        <pt x="726" y="669" on="1"/>
        <pt x="953" y="669" on="1"/>
        <pt x="953" y="628" on="1"/>
        <pt x="869" y="616" on="1"/>
        <pt x="700" y="-7" on="1"/>
      </contour>
    </TTGlyph>
    <TTGlyph name="X" xMin="10" yMin="0" xMax="639" yMax="669">
      <contour>
        <pt x="10" y="0" on="1"/>
        <pt x="10" y="41" on="1"/>
        <pt x="105" y="53" on="1"/>
        <pt x="284" y="324" on="1"/>
        <pt x="107" y="618" on="1"/>
        <pt x="19" y="628" on="1"/>
        <pt x="19" y="669" on="1"/>
        <pt x="300" y="669" on="1"/>
        <pt x="300" y="628" on="1"/>
        <pt x="212" y="618" on="1"/>
        <pt x="340" y="404" on="1"/>
        <pt x="473" y="616" on="1"/>
        <pt x="388" y="628" on="1"/>
        <pt x="388" y="669" on="1"/>
        <pt x="617" y="669" on="1"/>
        <pt x="617" y="628" on="1"/>
        <pt x="529" y="617" on="1"/>
        <pt x="365" y="363" on="1"/>
        <pt x="553" y="51" on="1"/>
        <pt x="639" y="41" on="1"/>
        <pt x="639" y="0" on="1"/>
        <pt x="356" y="0" on="1"/>
        <pt x="356" y="41" on="1"/>
        <pt x="448" y="52" on="1"/>
        <pt x="308" y="284" on="1"/>
        <pt x="161" y="52" on="1"/>
        <pt x="239" y="41" on="1"/>
        <pt x="239" y="0" on="1"/>
      </contour>
    </TTGlyph>
    <TTGlyph name="Y" xMin="15" yMin="0" xMax="623" yMax="669">
      <contour>
        <pt x="469" y="0" on="1"/>
        <pt x="167" y="0" on="1"/>
        <pt x="167" y="41" on="1"/>
        <pt x="269" y="52" on="1"/>
        <pt x="271" y="99" on="0"/>
        <pt x="271" y="201" on="0"/>
        <pt x="271" y="259" on="1"/>
        <pt x="94" y="619" on="1"/>
        <pt x="15" y="628" on="1"/>
        <pt x="15" y="669" on="1"/>
        <pt x="297" y="669" on="1"/>
        <pt x="297" y="628" on="1"/>
        <pt x="202" y="617" on="1"/>
        <pt x="341" y="314" on="1"/>
        <pt x="484" y="616" on="1"/>
        <pt x="394" y="628" on="1"/>
        <pt x="394" y="669" on="1"/>
        <pt x="623" y="669" on="1"/>
        <pt x="623" y="628" on="1"/>
        <pt x="535" y="615" on="1"/>
        <pt x="365" y="263" on="1"/>
        <pt x="365" y="205" on="0"/>
        <pt x="366" y="100" on="0"/>
        <pt x="367" y="52" on="1"/>
        <pt x="469" y="41" on="1"/>
      </contour>
    </TTGlyph>
    <TTGlyph name="Z" xMin="20" yMin="0" xMax="531" yMax="669">
      <contour>
        <pt x="470" y="178" on="1"/>
        <pt x="531" y="178" on="1"/>
        <pt x="523" y="0" on="1"/>
        <pt x="20" y="0" on="1"/>
        <pt x="20" y="36" on="1"/>
        <pt x="399" y="619" on="1"/>
        <pt x="118" y="619" on="1"/>
        <pt x="91" y="491" on="1"/>
        <pt x="30" y="491" on="1"/>
        <pt x="38" y="669" on="1"/>
        <pt x="509" y="669" on="1"/>
        <pt x="509" y="634" on="1"/>
        <pt x="131" y="50" on="1"/>
        <pt x="443" y="50" on="1"/>
      </contour>
    </TTGlyph>
    <TTGlyph name="a" xMin="45" yMin="-13" xMax="503" yMax="488">
      <contour>
        <pt x="214" y="53" on="1"/>
        <pt x="231" y="53" on="0"/>
        <pt x="259" y="62" on="0"/>
        <pt x="296" y="85" on="0"/>
        <pt x="324" y="105" on="1"/>
        <pt x="324" y="259" on="1"/>
        <pt x="298" y="252" on="0"/>
        <pt x="248" y="235" on="0"/>
        <pt x="232" y="229" on="1"/>
        <pt x="189" y="212" on="0"/>
        <pt x="147" y="176" on="0"/>
        <pt x="134" y="142" on="0"/>
        <pt x="134" y="127" on="1"/>
        <pt x="134" y="87" on="0"/>
        <pt x="180" y="53" on="0"/>
      </contour>
      <contour>
        <pt x="416" y="-10" on="1"/>
        <pt x="380" y="-10" on="0"/>
        <pt x="332" y="32" on="0"/>
        <pt x="326" y="67" on="1"/>
        <pt x="285" y="27" on="0"/>
        <pt x="223" y="-13" on="0"/>
        <pt x="179" y="-13" on="1"/>
        <pt x="124" y="-13" on="0"/>
        <pt x="45" y="50" on="0"/>
        <pt x="45" y="112" on="1"/>
        <pt x="45" y="141" on="0"/>
        <pt x="72" y="191" on="0"/>
        <pt x="144" y="239" on="0"/>
        <pt x="211" y="263" on="1"/>
        <pt x="234" y="271" on="0"/>
        <pt x="294" y="289" on="0"/>
        <pt x="324" y="296" on="1"/>
        <pt x="324" y="321" on="1"/>
        <pt x="324" y="394" on="0"/>
        <pt x="280" y="442" on="0"/>
        <pt x="230" y="442" on="1"/>
        <pt x="219" y="442" on="0"/>
        <pt x="192" y="440" on="0"/>
        <pt x="176" y="436" on="1"/>
        <pt x="157" y="371" on="1"/>
        <pt x="143" y="323" on="0"/>
        <pt x="105" y="323" on="1"/>
        <pt x="63" y="323" on="0"/>
        <pt x="58" y="364" on="1"/>
        <pt x="72" y="421" on="0"/>
        <pt x="177" y="488" on="0"/>
        <pt x="253" y="488" on="1"/>
        <pt x="332" y="488" on="0"/>
        <pt x="408" y="409" on="0"/>
        <pt x="408" y="314" on="1"/>
        <pt x="408" y="101" on="1"/>
        <pt x="408" y="69" on="0"/>
        <pt x="428" y="42" on="0"/>
        <pt x="444" y="42" on="1"/>
        <pt x="457" y="42" on="0"/>
        <pt x="475" y="54" on="0"/>
        <pt x="483" y="64" on="1"/>
        <pt x="503" y="42" on="1"/>
        <pt x="485" y="13" on="0"/>
        <pt x="442" y="-10" on="0"/>
      </contour>
    </TTGlyph>
    <TTGlyph name="ampersand" xMin="27" yMin="-13" xMax="675" yMax="684">
      <contour>
        <pt x="594" y="-13" on="1"/>
        <pt x="554" y="-13" on="0"/>
        <pt x="502" y="8" on="0"/>
        <pt x="477" y="33" on="1"/>
        <pt x="468" y="44" on="0"/>
        <pt x="450" y="62" on="0"/>
        <pt x="442" y="72" on="1"/>
        <pt x="409" y="36" on="0"/>
        <pt x="310" y="-13" on="0"/>
        <pt x="238" y="-13" on="1"/>
        <pt x="176" y="-13" on="0"/>
        <pt x="80" y="36" on="0"/>
        <pt x="27" y="119" on="0"/>
        <pt x="27" y="169" on="1"/>
        <pt x="27" y="237" on="0"/>
        <pt x="103" y="339" on="0"/>
        <pt x="178" y="376" on="1"/>
        <pt x="177" y="378" on="0"/>
        <pt x="175" y="380" on="0"/>
        <pt x="174" y="381" on="1"/>
        <pt x="137" y="424" on="0"/>
        <pt x="105" y="502" on="0"/>
        <pt x="105" y="542" on="1"/>
        <pt x="105" y="608" on="0"/>
        <pt x="199" y="684" on="0"/>
        <pt x="269" y="684" on="1"/>
        <pt x="343" y="684" on="0"/>
        <pt x="421" y="612" on="0"/>
        <pt x="421" y="556" on="1"/>
        <pt x="421" y="504" on="0"/>
        <pt x="350" y="424" on="0"/>
        <pt x="273" y="383" on="1"/>
        <pt x="289" y="365" on="0"/>
        <pt x="327" y="323" on="0"/>
        <pt x="353" y="294" on="1"/>
        <pt x="383" y="261" on="0"/>
        <pt x="439" y="202" on="0"/>
        <pt x="468" y="170" on="1"/>
        <pt x="496" y="217" on="0"/>
        <pt x="538" y="317" on="0"/>
        <pt x="551" y="376" on="1"/>
        <pt x="472" y="389" on="1"/>
        <pt x="472" y="429" on="1"/>
        <pt x="675" y="429" on="1"/>
        <pt x="675" y="389" on="1"/>
        <pt x="599" y="375" on="1"/>
        <pt x="582" y="307" on="0"/>
        <pt x="530" y="193" on="0"/>
        <pt x="495" y="141" on="1"/>
        <pt x="514" y="122" on="0"/>
        <pt x="554" y="78" on="0"/>
        <pt x="577" y="54" on="1"/>
        <pt x="674" y="41" on="1"/>
        <pt x="670" y="-3" on="1"/>
        <pt x="648" y="-8" on="0"/>
        <pt x="614" y="-13" on="0"/>
      </contour>
      <contour>
        <pt x="222" y="443" on="1"/>
        <pt x="236" y="425" on="0"/>
        <pt x="249" y="410" on="1"/>
        <pt x="296" y="442" on="0"/>
        <pt x="355" y="512" on="0"/>
        <pt x="355" y="555" on="1"/>
        <pt x="355" y="599" on="0"/>
        <pt x="305" y="649" on="0"/>
        <pt x="268" y="649" on="1"/>
        <pt x="230" y="649" on="0"/>
        <pt x="177" y="596" on="0"/>
        <pt x="177" y="556" on="1"/>
        <pt x="177" y="529" on="0"/>
        <pt x="194" y="478" on="0"/>
      </contour>
      <contour>
        <pt x="311" y="219" on="1"/>
        <pt x="277" y="260" on="0"/>
        <pt x="227" y="320" on="0"/>
        <pt x="202" y="348" on="1"/>
        <pt x="150" y="317" on="0"/>
        <pt x="114" y="234" on="0"/>
        <pt x="114" y="196" on="1"/>
        <pt x="114" y="160" on="0"/>
        <pt x="149" y="93" on="0"/>
        <pt x="217" y="51" on="0"/>
        <pt x="265" y="51" on="1"/>
        <pt x="307" y="51" on="0"/>
        <pt x="385" y="79" on="0"/>
        <pt x="413" y="104" on="1"/>
        <pt x="386" y="135" on="0"/>
        <pt x="337" y="191" on="0"/>
      </contour>
    </TTGlyph>
    <TTGlyph name="b" xMin="25" yMin="-13" xMax="532" yMax="739">
      <contour>
        <pt x="30" y="0" on="1"/>
        <pt x="30" y="36" on="1"/>
        <pt x="105" y="50" on="1"/>
        <pt x="106" y="88" on="0"/>
        <pt x="107" y="177" on="0"/>
        <pt x="107" y="210" on="1"/>
        <pt x="107" y="649" on="1"/>
        <pt x="25" y="659" on="1"/>
        <pt x="25" y="694" on="1"/>
        <pt x="178" y="739" on="1"/>
        <pt x="192" y="731" on="1"/>
        <pt x="188" y="589" on="1"/>
        <pt x="188" y="411" on="1"/>
        <pt x="224" y="451" on="0"/>
        <pt x="301" y="488" on="0"/>
        <pt x="342" y="488" on="1"/>
        <pt x="395" y="488" on="0"/>
        <pt x="481" y="430" on="0"/>
        <pt x="532" y="320" on="0"/>
        <pt x="532" y="242" on="1"/>
        <pt x="532" y="165" on="0"/>
        <pt x="478" y="50" on="0"/>
        <pt x="385" y="-13" on="0"/>
        <pt x="326" y="-13" on="1"/>
        <pt x="291" y="-13" on="0"/>
        <pt x="220" y="17" on="0"/>
        <pt x="188" y="57" on="1"/>
        <pt x="180" y="-10" on="1"/>
      </contour>
      <contour>
        <pt x="310" y="44" on="1"/>
        <pt x="363" y="44" on="0"/>
        <pt x="442" y="137" on="0"/>
        <pt x="442" y="234" on="1"/>
        <pt x="442" y="330" on="0"/>
        <pt x="371" y="431" on="0"/>
        <pt x="315" y="431" on="1"/>
        <pt x="292" y="431" on="0"/>
        <pt x="232" y="407" on="0"/>
        <pt x="191" y="373" on="1"/>
        <pt x="191" y="99" on="1"/>
        <pt x="222" y="70" on="0"/>
        <pt x="282" y="44" on="0"/>
      </contour>
    </TTGlyph>
    <TTGlyph name="c" xMin="42" yMin="-13" xMax="453" yMax="488">
      <contour>
        <pt x="277" y="442" on="1"/>
        <pt x="213" y="442" on="0"/>
        <pt x="130" y="342" on="0"/>
        <pt x="130" y="246" on="1"/>
        <pt x="130" y="152" on="0"/>
        <pt x="220" y="52" on="0"/>
        <pt x="290" y="52" on="1"/>
        <pt x="333" y="52" on="0"/>
        <pt x="405" y="91" on="0"/>
        <pt x="428" y="128" on="1"/>
        <pt x="453" y="115" on="1"/>
        <pt x="432" y="53" on="0"/>
        <pt x="338" y="-13" on="0"/>
        <pt x="267" y="-13" on="1"/>
        <pt x="164" y="-13" on="0"/>
        <pt x="42" y="121" on="0"/>
        <pt x="42" y="236" on="1"/>
        <pt x="42" y="315" on="0"/>
        <pt x="107" y="428" on="0"/>
        <pt x="213" y="488" on="0"/>
        <pt x="273" y="488" on="1"/>
        <pt x="318" y="488" on="0"/>
        <pt x="394" y="454" on="0"/>
        <pt x="444" y="395" on="0"/>
        <pt x="450" y="358" on="1"/>
        <pt x="443" y="320" on="0"/>
        <pt x="404" y="320" on="1"/>
        <pt x="379" y="320" on="0"/>
        <pt x="354" y="347" on="0"/>
        <pt x="349" y="368" on="1"/>
        <pt x="331" y="434" on="1"/>
        <pt x="317" y="439" on="0"/>
        <pt x="290" y="442" on="0"/>
      </contour>
    </TTGlyph>
    <TTGlyph name="d" xMin="45" yMin="-13" xMax="551" yMax="739">
      <contour>
        <pt x="135" y="235" on="1"/>
        <pt x="135" y="137" on="0"/>
        <pt x="214" y="44" on="0"/>
        <pt x="274" y="44" on="1"/>
        <pt x="307" y="44" on="0"/>
        <pt x="358" y="71" on="0"/>
        <pt x="386" y="102" on="1"/>
        <pt x="386" y="379" on="1"/>
        <pt x="352" y="409" on="0"/>
        <pt x="298" y="431" on="0"/>
        <pt x="273" y="431" on="1"/>
        <pt x="236" y="431" on="0"/>
        <pt x="173" y="390" on="0"/>
        <pt x="135" y="303" on="0"/>
      </contour>
      <contour>
        <pt x="396" y="-10" on="1"/>
        <pt x="389" y="60" on="1"/>
        <pt x="363" y="25" on="0"/>
        <pt x="296" y="-13" on="0"/>
        <pt x="249" y="-13" on="1"/>
        <pt x="188" y="-13" on="0"/>
        <pt x="96" y="49" on="0"/>
        <pt x="45" y="160" on="0"/>
        <pt x="45" y="233" on="1"/>
        <pt x="45" y="310" on="0"/>
        <pt x="101" y="424" on="0"/>
        <pt x="197" y="488" on="0"/>
        <pt x="258" y="488" on="1"/>
        <pt x="294" y="488" on="0"/>
        <pt x="358" y="459" on="0"/>
        <pt x="389" y="423" on="1"/>
        <pt x="389" y="649" on="1"/>
        <pt x="304" y="659" on="1"/>
        <pt x="304" y="694" on="1"/>
        <pt x="460" y="739" on="1"/>
        <pt x="474" y="731" on="1"/>
        <pt x="470" y="589" on="1"/>
        <pt x="470" y="49" on="1"/>
        <pt x="551" y="36" on="1"/>
        <pt x="551" y="0" on="1"/>
      </contour>
    </TTGlyph>
    <TTGlyph name="e" xMin="45" yMin="-13" xMax="461" yMax="488">
      <contour>
        <pt x="275" y="488" on="1"/>
        <pt x="327" y="488" on="0"/>
        <pt x="411" y="442" on="0"/>
        <pt x="461" y="357" on="0"/>
        <pt x="461" y="296" on="1"/>
        <pt x="461" y="279" on="0"/>
        <pt x="457" y="250" on="0"/>
        <pt x="454" y="240" on="1"/>
        <pt x="135" y="240" on="1"/>
        <pt x="137" y="148" on="0"/>
        <pt x="225" y="52" on="0"/>
        <pt x="297" y="52" on="1"/>
        <pt x="345" y="52" on="0"/>
        <pt x="409" y="91" on="0"/>
        <pt x="436" y="122" on="1"/>
        <pt x="460" y="103" on="1"/>
        <pt x="432" y="50" on="0"/>
        <pt x="336" y="-13" on="0"/>
        <pt x="268" y="-13" on="1"/>
        <pt x="167" y="-13" on="0"/>
        <pt x="45" y="118" on="0"/>
        <pt x="45" y="233" on="1"/>
        <pt x="45" y="310" on="0"/>
        <pt x="108" y="424" on="0"/>
        <pt x="213" y="488" on="0"/>
      </contour>
      <contour>
        <pt x="269" y="442" on="1"/>
        <pt x="241" y="442" on="0"/>
        <pt x="184" y="410" on="0"/>
        <pt x="143" y="340" on="0"/>
        <pt x="137" y="282" on="1"/>
        <pt x="319" y="282" on="1"/>
        <pt x="355" y="282" on="0"/>
        <pt x="378" y="312" on="0"/>
        <pt x="378" y="334" on="1"/>
        <pt x="378" y="363" on="0"/>
        <pt x="349" y="412" on="0"/>
        <pt x="300" y="442" on="0"/>
      </contour>
    </TTGlyph>
    <TTGlyph name="eight" xMin="44" yMin="-13" xMax="455" yMax="659">
      <contour>
        <pt x="44" y="149" on="1"/>
        <pt x="44" y="203" on="0"/>
        <pt x="116" y="283" on="0"/>
        <pt x="185" y="317" on="1"/>
        <pt x="122" y="352" on="0"/>
        <pt x="66" y="440" on="0"/>
        <pt x="66" y="492" on="1"/>
        <pt x="66" y="545" on="0"/>
        <pt x="116" y="619" on="0"/>
        <pt x="201" y="659" on="0"/>
        <pt x="253" y="659" on="1"/>
        <pt x="332" y="659" on="0"/>
        <pt x="425" y="573" on="0"/>
        <pt x="425" y="505" on="1"/>
        <pt x="425" y="470" on="0"/>
        <pt x="375" y="387" on="0"/>
        <pt x="307" y="347" on="1"/>
        <pt x="381" y="310" on="0"/>
        <pt x="455" y="224" on="0"/>
        <pt x="455" y="158" on="1"/>
        <pt x="455" y="108" on="0"/>
        <pt x="401" y="30" on="0"/>
        <pt x="309" y="-13" on="0"/>
        <pt x="251" y="-13" on="1"/>
        <pt x="160" y="-13" on="0"/>
        <pt x="44" y="69" on="0"/>
      </contour>
      <contour>
        <pt x="145" y="514" on="1"/>
        <pt x="145" y="475" on="0"/>
        <pt x="195" y="403" on="0"/>
        <pt x="269" y="365" on="1"/>
        <pt x="314" y="400" on="0"/>
        <pt x="350" y="462" on="0"/>
        <pt x="350" y="503" on="1"/>
        <pt x="350" y="548" on="0"/>
        <pt x="298" y="614" on="0"/>
        <pt x="251" y="614" on="1"/>
        <pt x="208" y="614" on="0"/>
        <pt x="145" y="560" on="0"/>
      </contour>
      <contour>
        <pt x="253" y="31" on="1"/>
        <pt x="306" y="31" on="0"/>
        <pt x="371" y="101" on="0"/>
        <pt x="371" y="151" on="1"/>
        <pt x="371" y="195" on="0"/>
        <pt x="306" y="259" on="0"/>
        <pt x="222" y="298" on="1"/>
        <pt x="175" y="269" on="0"/>
        <pt x="127" y="205" on="0"/>
        <pt x="127" y="155" on="1"/>
        <pt x="127" y="102" on="0"/>
        <pt x="198" y="31" on="0"/>
      </contour>
    </TTGlyph>
    <TTGlyph name="f" xMin="34" yMin="0" xMax="426" yMax="749">
      <contour>
        <pt x="117" y="210" on="1"/>
        <pt x="117" y="422" on="1"/>
        <pt x="34" y="422" on="1"/>
        <pt x="34" y="466" on="1"/>
        <pt x="118" y="477" on="1"/>
        <pt x="126" y="557" on="0"/>
        <pt x="157" y="654" on="0"/>
        <pt x="189" y="688" on="1"/>
        <pt x="222" y="723" on="0"/>
        <pt x="296" y="749" on="0"/>
        <pt x="330" y="749" on="1"/>
        <pt x="365" y="749" on="0"/>
        <pt x="419" y="724" on="0"/>
        <pt x="426" y="695" on="1"/>
        <pt x="425" y="676" on="0"/>
        <pt x="393" y="650" on="0"/>
        <pt x="365" y="650" on="1"/>
        <pt x="329" y="650" on="0"/>
        <pt x="293" y="680" on="1"/>
        <pt x="265" y="702" on="1"/>
        <pt x="244" y="686" on="0"/>
        <pt x="231" y="664" on="1"/>
        <pt x="216" y="637" on="0"/>
        <pt x="198" y="547" on="0"/>
        <pt x="200" y="475" on="1"/>
        <pt x="338" y="475" on="1"/>
        <pt x="338" y="422" on="1"/>
        <pt x="202" y="422" on="1"/>
        <pt x="202" y="210" on="1"/>
        <pt x="202" y="170" on="0"/>
        <pt x="203" y="91" on="0"/>
        <pt x="204" y="51" on="1"/>
        <pt x="294" y="36" on="1"/>
        <pt x="294" y="0" on="1"/>
        <pt x="36" y="0" on="1"/>
        <pt x="36" y="36" on="1"/>
        <pt x="115" y="50" on="1"/>
        <pt x="116" y="90" on="0"/>
        <pt x="117" y="170" on="0"/>
      </contour>
    </TTGlyph>
    <TTGlyph name="five" xMin="38" yMin="-13" xMax="458" yMax="646">
      <contour>
        <pt x="225" y="-13" on="1"/>
        <pt x="70" y="-13" on="0"/>
        <pt x="38" y="128" on="1"/>
        <pt x="51" y="162" on="0"/>
        <pt x="89" y="162" on="1"/>
        <pt x="112" y="162" on="0"/>
        <pt x="137" y="134" on="0"/>
        <pt x="147" y="94" on="1"/>
        <pt x="161" y="40" on="1"/>
        <pt x="176" y="36" on="0"/>
        <pt x="205" y="32" on="0"/>
        <pt x="218" y="32" on="1"/>
        <pt x="292" y="32" on="0"/>
        <pt x="368" y="119" on="0"/>
        <pt x="368" y="191" on="1"/>
        <pt x="368" y="266" on="0"/>
        <pt x="284" y="345" on="0"/>
        <pt x="212" y="345" on="1"/>
        <pt x="169" y="345" on="0"/>
        <pt x="120" y="334" on="1"/>
        <pt x="92" y="342" on="1"/>
        <pt x="113" y="646" on="1"/>
        <pt x="440" y="646" on="1"/>
        <pt x="440" y="564" on="1"/>
        <pt x="157" y="564" on="1"/>
        <pt x="145" y="394" on="1"/>
        <pt x="190" y="406" on="0"/>
        <pt x="239" y="406" on="1"/>
        <pt x="337" y="406" on="0"/>
        <pt x="458" y="301" on="0"/>
        <pt x="458" y="201" on="1"/>
        <pt x="458" y="137" on="0"/>
        <pt x="400" y="41" on="0"/>
        <pt x="295" y="-13" on="0"/>
      </contour>
    </TTGlyph>
    <TTGlyph name="four" xMin="24" yMin="0" xMax="484" yMax="654">
      <contour>
        <pt x="484" y="193" on="1"/>
        <pt x="379" y="193" on="1"/>
        <pt x="379" y="0" on="1"/>
        <pt x="296" y="0" on="1"/>
        <pt x="296" y="193" on="1"/>
        <pt x="24" y="193" on="1"/>
        <pt x="24" y="246" on="1"/>
        <pt x="321" y="654" on="1"/>
        <pt x="379" y="654" on="1"/>
        <pt x="379" y="256" on="1"/>
        <pt x="484" y="256" on="1"/>
      </contour>
      <contour>
        <pt x="296" y="256" on="1"/>
        <pt x="296" y="549" on="1"/>
        <pt x="85" y="256" on="1"/>
      </contour>
    </TTGlyph>
    <TTGlyph name="g" xMin="36" yMin="-239" xMax="495" yMax="488">
      <contour>
        <pt x="247" y="-193" on="1"/>
        <pt x="329" y="-193" on="0"/>
        <pt x="415" y="-134" on="0"/>
        <pt x="415" y="-92" on="1"/>
        <pt x="415" y="-59" on="0"/>
        <pt x="369" y="-14" on="0"/>
        <pt x="315" y="-14" on="1"/>
        <pt x="198" y="-14" on="1"/>
        <pt x="188" y="-14" on="0"/>
        <pt x="167" y="-13" on="0"/>
        <pt x="157" y="-12" on="1"/>
        <pt x="136" y="-34" on="0"/>
        <pt x="118" y="-77" on="0"/>
        <pt x="118" y="-102" on="1"/>
        <pt x="118" y="-151" on="0"/>
        <pt x="188" y="-193" on="0"/>
      </contour>
      <contour>
        <pt x="59" y="324" on="1"/>
        <pt x="59" y="403" on="0"/>
        <pt x="162" y="488" on="0"/>
        <pt x="240" y="488" on="1"/>
        <pt x="319" y="488" on="0"/>
        <pt x="367" y="449" on="1"/>
        <pt x="480" y="488" on="1"/>
        <pt x="495" y="478" on="1"/>
        <pt x="495" y="415" on="1"/>
        <pt x="397" y="415" on="1"/>
        <pt x="420" y="378" on="0"/>
        <pt x="420" y="324" on="1"/>
        <pt x="420" y="245" on="0"/>
        <pt x="317" y="160" on="0"/>
        <pt x="239" y="160" on="1"/>
        <pt x="200" y="160" on="0"/>
        <pt x="165" y="171" on="1"/>
        <pt x="140" y="139" on="0"/>
        <pt x="140" y="107" on="1"/>
        <pt x="140" y="87" on="0"/>
        <pt x="163" y="63" on="0"/>
        <pt x="198" y="63" on="1"/>
        <pt x="329" y="63" on="1"/>
        <pt x="412" y="63" on="0"/>
        <pt x="490" y="-5" on="0"/>
        <pt x="490" y="-66" on="1"/>
        <pt x="490" y="-109" on="0"/>
        <pt x="435" y="-189" on="0"/>
        <pt x="325" y="-239" on="0"/>
        <pt x="243" y="-239" on="1"/>
        <pt x="134" y="-239" on="0"/>
        <pt x="36" y="-171" on="0"/>
        <pt x="36" y="-118" on="1"/>
        <pt x="36" y="-86" on="0"/>
        <pt x="79" y="-31" on="0"/>
        <pt x="134" y="-4" on="1"/>
        <pt x="68" y="14" on="0"/>
        <pt x="68" y="72" on="1"/>
        <pt x="68" y="95" on="0"/>
        <pt x="99" y="149" on="0"/>
        <pt x="136" y="183" on="1"/>
        <pt x="100" y="203" on="0"/>
        <pt x="59" y="273" on="0"/>
      </contour>
      <contour>
        <pt x="241" y="447" on="1"/>
        <pt x="194" y="447" on="0"/>
        <pt x="140" y="378" on="0"/>
        <pt x="140" y="323" on="1"/>
        <pt x="140" y="268" on="0"/>
        <pt x="191" y="200" on="0"/>
        <pt x="237" y="200" on="1"/>
        <pt x="285" y="200" on="0"/>
        <pt x="339" y="272" on="0"/>
        <pt x="339" y="327" on="1"/>
        <pt x="339" y="380" on="0"/>
        <pt x="288" y="447" on="0"/>
      </contour>
    </TTGlyph>
    <TTGlyph name="h" xMin="25" yMin="0" xMax="571" yMax="739">
      <contour>
        <pt x="371" y="488" on="1"/>
        <pt x="436" y="488" on="0"/>
        <pt x="499" y="401" on="0"/>
        <pt x="499" y="303" on="1"/>
        <pt x="499" y="210" on="1"/>
        <pt x="499" y="176" on="0"/>
        <pt x="500" y="88" on="0"/>
        <pt x="501" y="50" on="1"/>
        <pt x="571" y="36" on="1"/>
        <pt x="571" y="0" on="1"/>
        <pt x="339" y="0" on="1"/>
        <pt x="339" y="36" on="1"/>
        <pt x="412" y="49" on="1"/>
        <pt x="413" y="87" on="0"/>
        <pt x="414" y="176" on="0"/>
        <pt x="414" y="210" on="1"/>
        <pt x="414" y="295" on="1"/>
        <pt x="414" y="364" on="0"/>
        <pt x="376" y="416" on="0"/>
        <pt x="332" y="416" on="1"/>
        <pt x="295" y="416" on="0"/>
        <pt x="229" y="386" on="0"/>
        <pt x="191" y="351" on="1"/>
        <pt x="191" y="210" on="1"/>
        <pt x="191" y="177" on="0"/>
        <pt x="192" y="88" on="0"/>
        <pt x="193" y="50" on="1"/>
        <pt x="262" y="36" on="1"/>
        <pt x="262" y="0" on="1"/>
        <pt x="30" y="0" on="1"/>
        <pt x="30" y="36" on="1"/>
        <pt x="105" y="50" on="1"/>
        <pt x="106" y="88" on="0"/>
        <pt x="107" y="177" on="0"/>
        <pt x="107" y="210" on="1"/>
        <pt x="107" y="649" on="1"/>
        <pt x="25" y="659" on="1"/>
        <pt x="25" y="694" on="1"/>
        <pt x="178" y="739" on="1"/>
        <pt x="192" y="731" on="1"/>
        <pt x="188" y="589" on="1"/>
        <pt x="188" y="395" on="1"/>
        <pt x="225" y="436" on="0"/>
        <pt x="324" y="488" on="0"/>
      </contour>
    </TTGlyph>
    <TTGlyph name="i" xMin="29" yMin="0" xMax="267" yMax="726">
      <contour>
        <pt x="153" y="598" on="1"/>
        <pt x="125" y="598" on="0"/>
        <pt x="86" y="634" on="0"/>
        <pt x="86" y="662" on="1"/>
        <pt x="86" y="691" on="0"/>
        <pt x="125" y="726" on="0"/>
        <pt x="153" y="726" on="1"/>
        <pt x="181" y="726" on="0"/>
        <pt x="220" y="691" on="0"/>
        <pt x="220" y="662" on="1"/>
        <pt x="220" y="634" on="0"/>
        <pt x="181" y="598" on="0"/>
      </contour>
      <contour>
        <pt x="267" y="0" on="1"/>
        <pt x="35" y="0" on="1"/>
        <pt x="35" y="36" on="1"/>
        <pt x="110" y="50" on="1"/>
        <pt x="111" y="88" on="0"/>
        <pt x="112" y="177" on="0"/>
        <pt x="112" y="210" on="1"/>
        <pt x="112" y="257" on="1"/>
        <pt x="112" y="298" on="0"/>
        <pt x="111" y="353" on="0"/>
        <pt x="109" y="383" on="1"/>
        <pt x="29" y="392" on="1"/>
        <pt x="29" y="427" on="1"/>
        <pt x="183" y="488" on="1"/>
        <pt x="198" y="478" on="1"/>
        <pt x="195" y="342" on="1"/>
        <pt x="195" y="210" on="1"/>
        <pt x="195" y="177" on="0"/>
        <pt x="196" y="88" on="0"/>
        <pt x="197" y="50" on="1"/>
        <pt x="267" y="36" on="1"/>
      </contour>
    </TTGlyph>
    <TTGlyph name="j" xMin="-83" yMin="-249" xMax="220" yMax="726">
      <contour>
        <pt x="152" y="598" on="1"/>
        <pt x="124" y="598" on="0"/>
        <pt x="85" y="634" on="0"/>
        <pt x="85" y="662" on="1"/>
        <pt x="85" y="691" on="0"/>
        <pt x="124" y="726" on="0"/>
        <pt x="152" y="726" on="1"/>
        <pt x="181" y="726" on="0"/>
        <pt x="220" y="691" on="0"/>
        <pt x="220" y="662" on="1"/>
        <pt x="220" y="634" on="0"/>
        <pt x="181" y="598" on="0"/>
      </contour>
      <contour>
        <pt x="111" y="102" on="1"/>
        <pt x="111" y="257" on="1"/>
        <pt x="111" y="298" on="0"/>
        <pt x="110" y="353" on="0"/>
        <pt x="108" y="383" on="1"/>
        <pt x="29" y="392" on="1"/>
        <pt x="29" y="427" on="1"/>
        <pt x="180" y="488" on="1"/>
        <pt x="195" y="478" on="1"/>
        <pt x="192" y="342" on="1"/>
        <pt x="192" y="100" on="1"/>
        <pt x="192" y="19" on="0"/>
        <pt x="184" y="-91" on="0"/>
        <pt x="159" y="-164" on="0"/>
        <pt x="133" y="-193" on="1"/>
        <pt x="108" y="-219" on="0"/>
        <pt x="50" y="-249" on="0"/>
        <pt x="6" y="-249" on="1"/>
        <pt x="-39" y="-249" on="0"/>
        <pt x="-82" y="-211" on="0"/>
        <pt x="-83" y="-192" on="1"/>
        <pt x="-70" y="-151" on="0"/>
        <pt x="-24" y="-151" on="1"/>
        <pt x="-4" y="-151" on="0"/>
        <pt x="32" y="-166" on="0"/>
        <pt x="51" y="-181" on="1"/>
        <pt x="74" y="-199" on="1"/>
        <pt x="79" y="-194" on="0"/>
        <pt x="87" y="-181" on="0"/>
        <pt x="90" y="-172" on="1"/>
        <pt x="102" y="-140" on="0"/>
        <pt x="111" y="-10" on="0"/>
      </contour>
    </TTGlyph>
    <TTGlyph name="k" xMin="25" yMin="0" xMax="547" yMax="739">
      <contour>
        <pt x="25" y="694" on="1"/>
        <pt x="181" y="739" on="1"/>
        <pt x="195" y="731" on="1"/>
        <pt x="191" y="589" on="1"/>
        <pt x="191" y="240" on="1"/>
        <pt x="362" y="418" on="1"/>
        <pt x="289" y="436" on="1"/>
        <pt x="289" y="475" on="1"/>
        <pt x="521" y="475" on="1"/>
        <pt x="521" y="436" on="1"/>
        <pt x="427" y="422" on="1"/>
        <pt x="317" y="309" on="1"/>
        <pt x="481" y="48" on="1"/>
        <pt x="547" y="36" on="1"/>
        <pt x="547" y="0" on="1"/>
        <pt x="411" y="0" on="1"/>
        <pt x="257" y="248" on="1"/>
        <pt x="191" y="180" on="1"/>
        <pt x="191" y="148" on="0"/>
        <pt x="192" y="82" on="0"/>
        <pt x="193" y="50" on="1"/>
        <pt x="273" y="36" on="1"/>
        <pt x="273" y="0" on="1"/>
        <pt x="25" y="0" on="1"/>
        <pt x="25" y="36" on="1"/>
        <pt x="105" y="50" on="1"/>
        <pt x="106" y="90" on="0"/>
        <pt x="107" y="171" on="0"/>
        <pt x="107" y="210" on="1"/>
        <pt x="107" y="649" on="1"/>
        <pt x="25" y="659" on="1"/>
      </contour>
    </TTGlyph>
    <TTGlyph name="l" xMin="25" yMin="0" xMax="273" yMax="739">
      <contour>
        <pt x="25" y="694" on="1"/>
        <pt x="181" y="739" on="1"/>
        <pt x="195" y="731" on="1"/>
        <pt x="191" y="589" on="1"/>
        <pt x="191" y="210" on="1"/>
        <pt x="191" y="170" on="0"/>
        <pt x="192" y="90" on="0"/>
        <pt x="193" y="50" on="1"/>
        <pt x="273" y="36" on="1"/>
        <pt x="273" y="0" on="1"/>
        <pt x="25" y="0" on="1"/>
        <pt x="25" y="36" on="1"/>
        <pt x="105" y="50" on="1"/>
        <pt x="106" y="91" on="0"/>
        <pt x="107" y="170" on="0"/>
        <pt x="107" y="210" on="1"/>
        <pt x="107" y="649" on="1"/>
        <pt x="25" y="659" on="1"/>
      </contour>
    </TTGlyph>
    <TTGlyph name="m" xMin="34" yMin="0" xMax="872" yMax="488">
      <contour>
        <pt x="372" y="488" on="1"/>
        <pt x="419" y="488" on="0"/>
        <pt x="478" y="444" on="0"/>
        <pt x="490" y="394" on="1"/>
        <pt x="529" y="441" on="0"/>
        <pt x="624" y="488" on="0"/>
        <pt x="672" y="488" on="1"/>
        <pt x="733" y="488" on="0"/>
        <pt x="800" y="406" on="0"/>
        <pt x="800" y="313" on="1"/>
        <pt x="800" y="210" on="1"/>
        <pt x="800" y="176" on="0"/>
        <pt x="801" y="88" on="0"/>
        <pt x="802" y="50" on="1"/>
        <pt x="872" y="36" on="1"/>
        <pt x="872" y="0" on="1"/>
        <pt x="640" y="0" on="1"/>
        <pt x="640" y="36" on="1"/>
        <pt x="714" y="50" on="1"/>
        <pt x="715" y="87" on="0"/>
        <pt x="716" y="176" on="0"/>
        <pt x="716" y="210" on="1"/>
        <pt x="716" y="297" on="1"/>
        <pt x="716" y="367" on="0"/>
        <pt x="676" y="416" on="0"/>
        <pt x="632" y="416" on="1"/>
        <pt x="601" y="416" on="0"/>
        <pt x="536" y="388" on="0"/>
        <pt x="498" y="353" on="1"/>
        <pt x="499" y="342" on="0"/>
        <pt x="500" y="317" on="0"/>
        <pt x="500" y="303" on="1"/>
        <pt x="500" y="210" on="1"/>
        <pt x="500" y="176" on="0"/>
        <pt x="501" y="88" on="0"/>
        <pt x="502" y="50" on="1"/>
        <pt x="572" y="36" on="1"/>
        <pt x="572" y="0" on="1"/>
        <pt x="340" y="0" on="1"/>
        <pt x="340" y="36" on="1"/>
        <pt x="414" y="50" on="1"/>
        <pt x="415" y="87" on="0"/>
        <pt x="416" y="176" on="0"/>
        <pt x="416" y="210" on="1"/>
        <pt x="416" y="295" on="1"/>
        <pt x="416" y="363" on="0"/>
        <pt x="378" y="416" on="0"/>
        <pt x="334" y="416" on="1"/>
        <pt x="300" y="416" on="0"/>
        <pt x="238" y="388" on="0"/>
        <pt x="201" y="356" on="1"/>
        <pt x="201" y="210" on="1"/>
        <pt x="201" y="177" on="0"/>
        <pt x="202" y="88" on="0"/>
        <pt x="203" y="50" on="1"/>
        <pt x="272" y="36" on="1"/>
        <pt x="272" y="0" on="1"/>
        <pt x="40" y="0" on="1"/>
        <pt x="40" y="36" on="1"/>
        <pt x="114" y="50" on="1"/>
        <pt x="115" y="88" on="0"/>
        <pt x="116" y="176" on="0"/>
        <pt x="116" y="210" on="1"/>
        <pt x="116" y="258" on="1"/>
        <pt x="116" y="299" on="0"/>
        <pt x="115" y="353" on="0"/>
        <pt x="113" y="383" on="1"/>
        <pt x="34" y="392" on="1"/>
        <pt x="34" y="427" on="1"/>
        <pt x="174" y="488" on="1"/>
        <pt x="189" y="478" on="1"/>
        <pt x="197" y="398" on="1"/>
        <pt x="233" y="438" on="0"/>
        <pt x="326" y="488" on="0"/>
      </contour>
    </TTGlyph>
    <TTGlyph name="n" xMin="34" yMin="0" xMax="576" yMax="488">
      <contour>
        <pt x="376" y="488" on="1"/>
        <pt x="441" y="488" on="0"/>
        <pt x="504" y="401" on="0"/>
        <pt x="504" y="303" on="1"/>
        <pt x="504" y="210" on="1"/>
        <pt x="504" y="176" on="0"/>
        <pt x="505" y="88" on="0"/>
        <pt x="506" y="50" on="1"/>
        <pt x="576" y="36" on="1"/>
        <pt x="576" y="0" on="1"/>
        <pt x="344" y="0" on="1"/>
        <pt x="344" y="36" on="1"/>
        <pt x="418" y="50" on="1"/>
        <pt x="419" y="87" on="0"/>
        <pt x="420" y="176" on="0"/>
        <pt x="420" y="210" on="1"/>
        <pt x="420" y="295" on="1"/>
        <pt x="420" y="364" on="0"/>
        <pt x="381" y="416" on="0"/>
        <pt x="337" y="416" on="1"/>
        <pt x="303" y="416" on="0"/>
        <pt x="239" y="388" on="0"/>
        <pt x="201" y="356" on="1"/>
        <pt x="201" y="210" on="1"/>
        <pt x="201" y="177" on="0"/>
        <pt x="202" y="88" on="0"/>
        <pt x="203" y="50" on="1"/>
        <pt x="272" y="36" on="1"/>
        <pt x="272" y="0" on="1"/>
        <pt x="40" y="0" on="1"/>
        <pt x="40" y="36" on="1"/>
        <pt x="114" y="50" on="1"/>
        <pt x="115" y="88" on="0"/>
        <pt x="116" y="176" on="0"/>
        <pt x="116" y="210" on="1"/>
        <pt x="116" y="258" on="1"/>
        <pt x="116" y="299" on="0"/>
        <pt x="115" y="353" on="0"/>
        <pt x="113" y="383" on="1"/>
        <pt x="34" y="392" on="1"/>
        <pt x="34" y="427" on="1"/>
        <pt x="174" y="488" on="1"/>
        <pt x="189" y="478" on="1"/>
        <pt x="197" y="397" on="1"/>
        <pt x="234" y="438" on="0"/>
        <pt x="330" y="488" on="0"/>
      </contour>
    </TTGlyph>
    <TTGlyph name="nine" xMin="29" yMin="-20" xMax="450" yMax="659">
      <contour>
        <pt x="86" y="-20" on="1"/>
        <pt x="76" y="18" on="1"/>
        <pt x="212" y="62" on="0"/>
        <pt x="341" y="202" on="0"/>
        <pt x="355" y="306" on="1"/>
        <pt x="304" y="256" on="0"/>
        <pt x="223" y="256" on="1"/>
        <pt x="170" y="256" on="0"/>
        <pt x="81" y="303" on="0"/>
        <pt x="29" y="391" on="0"/>
        <pt x="29" y="452" on="1"/>
        <pt x="29" y="515" on="0"/>
        <pt x="83" y="608" on="0"/>
        <pt x="179" y="659" on="0"/>
        <pt x="242" y="659" on="1"/>
        <pt x="340" y="659" on="0"/>
        <pt x="450" y="518" on="0"/>
        <pt x="450" y="399" on="1"/>
        <pt x="450" y="304" on="0"/>
        <pt x="376" y="135" on="0"/>
        <pt x="216" y="10" on="0"/>
      </contour>
      <contour>
        <pt x="118" y="461" on="1"/>
        <pt x="118" y="385" on="0"/>
        <pt x="195" y="316" on="0"/>
        <pt x="250" y="316" on="1"/>
        <pt x="313" y="316" on="0"/>
        <pt x="359" y="356" on="1"/>
        <pt x="360" y="363" on="0"/>
        <pt x="360" y="375" on="0"/>
        <pt x="360" y="382" on="1"/>
        <pt x="360" y="504" on="0"/>
        <pt x="293" y="614" on="0"/>
        <pt x="237" y="614" on="1"/>
        <pt x="189" y="614" on="0"/>
        <pt x="118" y="537" on="0"/>
      </contour>
    </TTGlyph>
    <TTGlyph name="o" xMin="45" yMin="-13" xMax="504" yMax="488">
      <contour>
        <pt x="274" y="-13" on="1"/>
        <pt x="216" y="-13" on="0"/>
        <pt x="111" y="42" on="0"/>
        <pt x="45" y="153" on="0"/>
        <pt x="45" y="235" on="1"/>
        <pt x="45" y="318" on="0"/>
        <pt x="111" y="431" on="0"/>
        <pt x="216" y="488" on="0"/>
        <pt x="274" y="488" on="1"/>
        <pt x="332" y="488" on="0"/>
        <pt x="437" y="431" on="0"/>
        <pt x="504" y="318" on="0"/>
        <pt x="504" y="235" on="1"/>
        <pt x="504" y="153" on="0"/>
        <pt x="437" y="42" on="0"/>
        <pt x="332" y="-13" on="0"/>
      </contour>
      <contour>
        <pt x="274" y="32" on="1"/>
        <pt x="339" y="32" on="0"/>
        <pt x="409" y="135" on="0"/>
        <pt x="409" y="235" on="1"/>
        <pt x="409" y="336" on="0"/>
        <pt x="339" y="442" on="0"/>
        <pt x="274" y="442" on="1"/>
        <pt x="209" y="442" on="0"/>
        <pt x="140" y="336" on="0"/>
        <pt x="140" y="235" on="1"/>
        <pt x="140" y="135" on="0"/>
        <pt x="209" y="32" on="0"/>
      </contour>
    </TTGlyph>
    <TTGlyph name="one" xMin="74" yMin="0" xMax="445" yMax="654">
      <contour>
        <pt x="85" y="601" on="1"/>
        <pt x="291" y="654" on="1"/>
        <pt x="305" y="644" on="1"/>
        <pt x="301" y="501" on="1"/>
        <pt x="301" y="211" on="1"/>
        <pt x="301" y="174" on="0"/>
        <pt x="302" y="98" on="0"/>
        <pt x="303" y="60" on="1"/>
        <pt x="445" y="36" on="1"/>
        <pt x="445" y="0" on="1"/>
        <pt x="74" y="0" on="1"/>
        <pt x="74" y="36" on="1"/>
        <pt x="215" y="60" on="1"/>
        <pt x="216" y="98" on="0"/>
        <pt x="217" y="174" on="0"/>
        <pt x="217" y="211" on="1"/>
        <pt x="217" y="571" on="1"/>
        <pt x="85" y="560" on="1"/>
      </contour>
    </TTGlyph>
    <TTGlyph name="p" xMin="35" yMin="-239" xMax="538" yMax="488">
      <contour>
        <pt x="448" y="231" on="1"/>
        <pt x="448" y="327" on="0"/>
        <pt x="378" y="431" on="0"/>
        <pt x="323" y="431" on="1"/>
        <pt x="300" y="431" on="0"/>
        <pt x="240" y="408" on="0"/>
        <pt x="202" y="376" on="1"/>
        <pt x="202" y="95" on="1"/>
        <pt x="230" y="68" on="0"/>
        <pt x="284" y="44" on="0"/>
        <pt x="312" y="44" on="1"/>
        <pt x="368" y="44" on="0"/>
        <pt x="448" y="134" on="0"/>
      </contour>
      <contour>
        <pt x="117" y="-28" on="1"/>
        <pt x="117" y="258" on="1"/>
        <pt x="117" y="299" on="0"/>
        <pt x="116" y="353" on="0"/>
        <pt x="114" y="383" on="1"/>
        <pt x="35" y="392" on="1"/>
        <pt x="35" y="427" on="1"/>
        <pt x="175" y="488" on="1"/>
        <pt x="190" y="478" on="1"/>
        <pt x="196" y="414" on="1"/>
        <pt x="231" y="452" on="0"/>
        <pt x="307" y="488" on="0"/>
        <pt x="347" y="488" on="1"/>
        <pt x="401" y="488" on="0"/>
        <pt x="487" y="428" on="0"/>
        <pt x="538" y="317" on="0"/>
        <pt x="538" y="239" on="1"/>
        <pt x="538" y="162" on="0"/>
        <pt x="484" y="49" on="0"/>
        <pt x="391" y="-13" on="0"/>
        <pt x="332" y="-13" on="1"/>
        <pt x="298" y="-13" on="0"/>
        <pt x="231" y="16" on="0"/>
        <pt x="199" y="53" on="1"/>
        <pt x="199" y="-27" on="1"/>
        <pt x="199" y="-67" on="0"/>
        <pt x="200" y="-148" on="0"/>
        <pt x="201" y="-189" on="1"/>
        <pt x="292" y="-204" on="1"/>
        <pt x="292" y="-239" on="1"/>
        <pt x="35" y="-239" on="1"/>
        <pt x="35" y="-204" on="1"/>
        <pt x="115" y="-190" on="1"/>
        <pt x="116" y="-149" on="0"/>
        <pt x="117" y="-68" on="0"/>
      </contour>
    </TTGlyph>
    <TTGlyph name="q" xMin="45" yMin="-239" xMax="556" yMax="488">
      <contour>
        <pt x="135" y="234" on="1"/>
        <pt x="135" y="136" on="0"/>
        <pt x="214" y="44" on="0"/>
        <pt x="274" y="44" on="1"/>
        <pt x="307" y="44" on="0"/>
        <pt x="361" y="73" on="0"/>
        <pt x="390" y="107" on="1"/>
        <pt x="390" y="376" on="1"/>
        <pt x="354" y="408" on="0"/>
        <pt x="299" y="431" on="0"/>
        <pt x="273" y="431" on="1"/>
        <pt x="236" y="431" on="0"/>
        <pt x="173" y="389" on="0"/>
        <pt x="135" y="302" on="0"/>
      </contour>
      <contour>
        <pt x="474" y="-27" on="1"/>
        <pt x="474" y="-67" on="0"/>
        <pt x="475" y="-149" on="0"/>
        <pt x="476" y="-190" on="1"/>
        <pt x="556" y="-204" on="1"/>
        <pt x="556" y="-239" on="1"/>
        <pt x="299" y="-239" on="1"/>
        <pt x="299" y="-204" on="1"/>
        <pt x="391" y="-189" on="1"/>
        <pt x="392" y="-148" on="0"/>
        <pt x="393" y="-67" on="0"/>
        <pt x="393" y="-27" on="1"/>
        <pt x="393" y="66" on="1"/>
        <pt x="364" y="25" on="0"/>
        <pt x="293" y="-13" on="0"/>
        <pt x="249" y="-13" on="1"/>
        <pt x="188" y="-13" on="0"/>
        <pt x="96" y="49" on="0"/>
        <pt x="45" y="159" on="0"/>
        <pt x="45" y="232" on="1"/>
        <pt x="45" y="309" on="0"/>
        <pt x="100" y="424" on="0"/>
        <pt x="196" y="488" on="0"/>
        <pt x="255" y="488" on="1"/>
        <pt x="291" y="488" on="0"/>
        <pt x="360" y="458" on="0"/>
        <pt x="393" y="419" on="1"/>
        <pt x="461" y="488" on="1"/>
        <pt x="477" y="478" on="1"/>
        <pt x="474" y="343" on="1"/>
      </contour>
    </TTGlyph>
    <TTGlyph name="r" xMin="34" yMin="0" xMax="416" yMax="488">
      <contour>
        <pt x="42" y="0" on="1"/>
        <pt x="42" y="36" on="1"/>
        <pt x="114" y="49" on="1"/>
        <pt x="115" y="87" on="0"/>
        <pt x="116" y="176" on="0"/>
        <pt x="116" y="210" on="1"/>
        <pt x="116" y="258" on="1"/>
        <pt x="116" y="299" on="0"/>
        <pt x="115" y="353" on="0"/>
        <pt x="113" y="383" on="1"/>
        <pt x="34" y="392" on="1"/>
        <pt x="34" y="427" on="1"/>
        <pt x="174" y="488" on="1"/>
        <pt x="189" y="478" on="1"/>
        <pt x="200" y="360" on="1"/>
        <pt x="225" y="420" on="0"/>
        <pt x="304" y="488" on="0"/>
        <pt x="344" y="488" on="1"/>
        <pt x="367" y="488" on="0"/>
        <pt x="407" y="468" on="0"/>
        <pt x="416" y="451" on="1"/>
        <pt x="416" y="378" on="0"/>
        <pt x="357" y="378" on="1"/>
        <pt x="340" y="378" on="0"/>
        <pt x="310" y="391" on="0"/>
        <pt x="296" y="403" on="1"/>
        <pt x="284" y="414" on="1"/>
        <pt x="254" y="392" on="0"/>
        <pt x="214" y="328" on="0"/>
        <pt x="201" y="285" on="1"/>
        <pt x="201" y="210" on="1"/>
        <pt x="201" y="177" on="0"/>
        <pt x="202" y="89" on="0"/>
        <pt x="203" y="51" on="1"/>
        <pt x="285" y="36" on="1"/>
        <pt x="285" y="0" on="1"/>
      </contour>
    </TTGlyph>
    <TTGlyph name="s" xMin="47" yMin="-13" xMax="395" yMax="488">
      <contour>
        <pt x="200" y="-13" on="1"/>
        <pt x="158" y="-13" on="0"/>
        <pt x="88" y="6" on="0"/>
        <pt x="51" y="25" on="1"/>
        <pt x="47" y="135" on="1"/>
        <pt x="102" y="135" on="1"/>
        <pt x="121" y="48" on="1"/>
        <pt x="156" y="32" on="0"/>
        <pt x="202" y="32" on="1"/>
        <pt x="259" y="32" on="0"/>
        <pt x="314" y="74" on="0"/>
        <pt x="314" y="108" on="1"/>
        <pt x="314" y="140" on="0"/>
        <pt x="268" y="179" on="0"/>
        <pt x="221" y="195" on="1"/>
        <pt x="175" y="212" on="1"/>
        <pt x="120" y="232" on="0"/>
        <pt x="54" y="296" on="0"/>
        <pt x="54" y="347" on="1"/>
        <pt x="54" y="384" on="0"/>
        <pt x="94" y="448" on="0"/>
        <pt x="172" y="488" on="0"/>
        <pt x="228" y="488" on="1"/>
        <pt x="269" y="488" on="0"/>
        <pt x="336" y="467" on="0"/>
        <pt x="368" y="447" on="1"/>
        <pt x="364" y="345" on="1"/>
        <pt x="312" y="345" on="1"/>
        <pt x="296" y="425" on="1"/>
        <pt x="262" y="442" on="0"/>
        <pt x="227" y="442" on="1"/>
        <pt x="181" y="442" on="0"/>
        <pt x="134" y="405" on="0"/>
        <pt x="134" y="374" on="1"/>
        <pt x="134" y="341" on="0"/>
        <pt x="175" y="307" on="0"/>
        <pt x="226" y="288" on="1"/>
        <pt x="257" y="277" on="1"/>
        <pt x="332" y="249" on="0"/>
        <pt x="395" y="177" on="0"/>
        <pt x="395" y="130" on="1"/>
        <pt x="395" y="92" on="0"/>
        <pt x="351" y="27" on="0"/>
        <pt x="265" y="-13" on="0"/>
      </contour>
    </TTGlyph>
    <TTGlyph name="seven" xMin="51" yMin="0" xMax="464" yMax="646">
      <contour>
        <pt x="133" y="10" on="1"/>
        <pt x="397" y="564" on="1"/>
        <pt x="51" y="564" on="1"/>
        <pt x="51" y="646" on="1"/>
        <pt x="464" y="646" on="1"/>
        <pt x="464" y="595" on="1"/>
        <pt x="226" y="0" on="1"/>
        <pt x="143" y="0" on="1"/>
      </contour>
    </TTGlyph>
    <TTGlyph name="six" xMin="40" yMin="-13" xMax="461" yMax="659">
      <contour>
        <pt x="257" y="-13" on="1"/>
        <pt x="156" y="-13" on="0"/>
        <pt x="40" y="136" on="0"/>
        <pt x="40" y="271" on="1"/>
        <pt x="40" y="369" on="0"/>
        <pt x="128" y="535" on="0"/>
        <pt x="299" y="645" on="0"/>
        <pt x="423" y="659" on="1"/>
        <pt x="429" y="627" on="1"/>
        <pt x="284" y="592" on="0"/>
        <pt x="143" y="447" on="0"/>
        <pt x="132" y="331" on="1"/>
        <pt x="196" y="397" on="0"/>
        <pt x="278" y="397" on="1"/>
        <pt x="360" y="397" on="0"/>
        <pt x="461" y="292" on="0"/>
        <pt x="461" y="202" on="1"/>
        <pt x="461" y="131" on="0"/>
        <pt x="407" y="35" on="0"/>
        <pt x="315" y="-13" on="0"/>
      </contour>
      <contour>
        <pt x="259" y="32" on="1"/>
        <pt x="311" y="32" on="0"/>
        <pt x="372" y="109" on="0"/>
        <pt x="372" y="187" on="1"/>
        <pt x="372" y="266" on="0"/>
        <pt x="308" y="336" on="0"/>
        <pt x="256" y="336" on="1"/>
        <pt x="225" y="336" on="0"/>
        <pt x="159" y="316" on="0"/>
        <pt x="130" y="290" on="1"/>
        <pt x="130" y="285" on="1"/>
        <pt x="130" y="155" on="0"/>
        <pt x="199" y="32" on="0"/>
      </contour>
    </TTGlyph>
    <TTGlyph name="t" xMin="9" yMin="-13" xMax="323" yMax="611">
      <contour>
        <pt x="177" y="112" on="1"/>
        <pt x="177" y="74" on="0"/>
        <pt x="207" y="39" on="0"/>
        <pt x="232" y="39" on="1"/>
        <pt x="249" y="39" on="0"/>
        <pt x="280" y="53" on="0"/>
        <pt x="299" y="66" on="1"/>
        <pt x="323" y="40" on="1"/>
        <pt x="282" y="-13" on="0"/>
        <pt x="205" y="-13" on="1"/>
        <pt x="153" y="-13" on="0"/>
        <pt x="91" y="43" on="0"/>
        <pt x="91" y="101" on="1"/>
        <pt x="91" y="120" on="0"/>
        <pt x="92" y="157" on="0"/>
        <pt x="92" y="186" on="1"/>
        <pt x="92" y="422" on="1"/>
        <pt x="9" y="422" on="1"/>
        <pt x="9" y="466" on="1"/>
        <pt x="98" y="477" on="1"/>
        <pt x="124" y="611" on="1"/>
        <pt x="184" y="611" on="1"/>
        <pt x="179" y="475" on="1"/>
        <pt x="313" y="475" on="1"/>
        <pt x="313" y="422" on="1"/>
        <pt x="177" y="422" on="1"/>
      </contour>
    </TTGlyph>
    <TTGlyph name="three" xMin="44" yMin="-13" xMax="460" yMax="659">
      <contour>
        <pt x="170" y="365" on="1"/>
        <pt x="210" y="365" on="1"/>
        <pt x="278" y="365" on="0"/>
        <pt x="353" y="435" on="0"/>
        <pt x="353" y="499" on="1"/>
        <pt x="353" y="554" on="0"/>
        <pt x="290" y="614" on="0"/>
        <pt x="231" y="614" on="1"/>
        <pt x="221" y="614" on="0"/>
        <pt x="199" y="612" on="0"/>
        <pt x="185" y="610" on="1"/>
        <pt x="171" y="558" on="1"/>
        <pt x="163" y="526" on="0"/>
        <pt x="138" y="494" on="0"/>
        <pt x="112" y="494" on="1"/>
        <pt x="96" y="494" on="0"/>
        <pt x="69" y="510" on="0"/>
        <pt x="62" y="531" on="1"/>
        <pt x="76" y="596" on="0"/>
        <pt x="179" y="659" on="0"/>
        <pt x="248" y="659" on="1"/>
        <pt x="336" y="659" on="0"/>
        <pt x="440" y="572" on="0"/>
        <pt x="440" y="502" on="1"/>
        <pt x="440" y="448" on="0"/>
        <pt x="371" y="363" on="0"/>
        <pt x="309" y="341" on="1"/>
        <pt x="386" y="326" on="0"/>
        <pt x="460" y="240" on="0"/>
        <pt x="460" y="178" on="1"/>
        <pt x="460" y="124" on="0"/>
        <pt x="404" y="38" on="0"/>
        <pt x="304" y="-13" on="0"/>
        <pt x="236" y="-13" on="1"/>
        <pt x="163" y="-13" on="0"/>
        <pt x="58" y="54" on="0"/>
        <pt x="44" y="129" on="1"/>
        <pt x="61" y="162" on="0"/>
        <pt x="95" y="162" on="1"/>
        <pt x="121" y="162" on="0"/>
        <pt x="144" y="128" on="0"/>
        <pt x="154" y="90" on="1"/>
        <pt x="167" y="38" on="1"/>
        <pt x="184" y="34" on="0"/>
        <pt x="212" y="32" on="0"/>
        <pt x="223" y="32" on="1"/>
        <pt x="297" y="32" on="0"/>
        <pt x="371" y="109" on="0"/>
        <pt x="371" y="176" on="1"/>
        <pt x="371" y="241" on="0"/>
        <pt x="295" y="315" on="0"/>
        <pt x="218" y="315" on="1"/>
        <pt x="170" y="315" on="1"/>
      </contour>
    </TTGlyph>
    <TTGlyph name="two" xMin="44" yMin="0" xMax="460" yMax="659">
      <contour>
        <pt x="49" y="0" on="1"/>
        <pt x="49" y="65" on="1"/>
        <pt x="89" y="104" on="0"/>
        <pt x="164" y="181" on="0"/>
        <pt x="196" y="215" on="1"/>
        <pt x="271" y="294" on="0"/>
        <pt x="341" y="422" on="0"/>
        <pt x="341" y="480" on="1"/>
        <pt x="341" y="542" on="0"/>
        <pt x="276" y="614" on="0"/>
        <pt x="221" y="614" on="1"/>
        <pt x="211" y="614" on="0"/>
        <pt x="186" y="612" on="0"/>
        <pt x="172" y="609" on="1"/>
        <pt x="153" y="540" on="1"/>
        <pt x="143" y="503" on="0"/>
        <pt x="116" y="472" on="0"/>
        <pt x="95" y="472" on="1"/>
        <pt x="62" y="472" on="0"/>
        <pt x="44" y="504" on="1"/>
        <pt x="50" y="557" on="0"/>
        <pt x="108" y="626" on="0"/>
        <pt x="196" y="659" on="0"/>
        <pt x="246" y="659" on="1"/>
        <pt x="343" y="659" on="0"/>
        <pt x="431" y="564" on="0"/>
        <pt x="431" y="489" on="1"/>
        <pt x="431" y="445" on="0"/>
        <pt x="396" y="362" on="0"/>
        <pt x="310" y="259" on="0"/>
        <pt x="233" y="185" on="1"/>
        <pt x="213" y="165" on="0"/>
        <pt x="156" y="111" on="0"/>
        <pt x="125" y="82" on="1"/>
        <pt x="460" y="82" on="1"/>
        <pt x="460" y="0" on="1"/>
      </contour>
    </TTGlyph>
    <TTGlyph name="u" xMin="25" yMin="-13" xMax="549" yMax="481">
      <contour>
        <pt x="549" y="0" on="1"/>
        <pt x="410" y="-8" on="1"/>
        <pt x="400" y="81" on="1"/>
        <pt x="360" y="32" on="0"/>
        <pt x="268" y="-13" on="0"/>
        <pt x="223" y="-13" on="1"/>
        <pt x="162" y="-13" on="0"/>
        <pt x="92" y="68" on="0"/>
        <pt x="93" y="167" on="1"/>
        <pt x="96" y="416" on="1"/>
        <pt x="25" y="431" on="1"/>
        <pt x="25" y="467" on="1"/>
        <pt x="172" y="481" on="1"/>
        <pt x="182" y="471" on="1"/>
        <pt x="177" y="331" on="1"/>
        <pt x="177" y="176" on="1"/>
        <pt x="177" y="111" on="0"/>
        <pt x="217" y="58" on="0"/>
        <pt x="257" y="58" on="1"/>
        <pt x="327" y="58" on="0"/>
        <pt x="397" y="123" on="1"/>
        <pt x="400" y="416" on="1"/>
        <pt x="329" y="431" on="1"/>
        <pt x="329" y="467" on="1"/>
        <pt x="474" y="481" on="1"/>
        <pt x="484" y="471" on="1"/>
        <pt x="481" y="331" on="1"/>
        <pt x="481" y="50" on="1"/>
        <pt x="549" y="36" on="1"/>
      </contour>
    </TTGlyph>
    <TTGlyph name="v" xMin="0" yMin="-6" xMax="496" yMax="475">
      <contour>
        <pt x="279" y="-6" on="1"/>
        <pt x="236" y="-6" on="1"/>
        <pt x="54" y="426" on="1"/>
        <pt x="0" y="436" on="1"/>
        <pt x="0" y="475" on="1"/>
        <pt x="242" y="475" on="1"/>
        <pt x="242" y="436" on="1"/>
        <pt x="154" y="423" on="1"/>
        <pt x="276" y="101" on="1"/>
        <pt x="388" y="422" on="1"/>
        <pt x="306" y="436" on="1"/>
        <pt x="306" y="475" on="1"/>
        <pt x="496" y="475" on="1"/>
        <pt x="496" y="436" on="1"/>
        <pt x="441" y="423" on="1"/>
      </contour>
    </TTGlyph>
    <TTGlyph name="w" xMin="0" yMin="-6" xMax="754" yMax="475">
      <contour>
        <pt x="517" y="-6" on="1"/>
        <pt x="479" y="91" on="0"/>
        <pt x="429" y="224" on="0"/>
        <pt x="398" y="315" on="0"/>
        <pt x="386" y="349" on="1"/>
        <pt x="255" y="-6" on="1"/>
        <pt x="218" y="-6" on="1"/>
        <pt x="57" y="426" on="1"/>
        <pt x="0" y="436" on="1"/>
        <pt x="0" y="475" on="1"/>
        <pt x="228" y="475" on="1"/>
        <pt x="228" y="436" on="1"/>
        <pt x="150" y="424" on="1"/>
        <pt x="253" y="117" on="1"/>
        <pt x="365" y="424" on="1"/>
        <pt x="291" y="436" on="1"/>
        <pt x="291" y="475" on="1"/>
        <pt x="512" y="475" on="1"/>
        <pt x="512" y="436" on="1"/>
        <pt x="438" y="423" on="1"/>
        <pt x="551" y="120" on="1"/>
        <pt x="645" y="422" on="1"/>
        <pt x="571" y="436" on="1"/>
        <pt x="571" y="475" on="1"/>
        <pt x="754" y="475" on="1"/>
        <pt x="754" y="436" on="1"/>
        <pt x="700" y="423" on="1"/>
        <pt x="554" y="-6" on="1"/>
      </contour>
    </TTGlyph>
    <TTGlyph name="x" xMin="10" yMin="0" xMax="516" yMax="475">
      <contour>
        <pt x="210" y="36" on="1"/>
        <pt x="210" y="0" on="1"/>
        <pt x="10" y="0" on="1"/>
        <pt x="10" y="36" on="1"/>
        <pt x="74" y="48" on="1"/>
        <pt x="220" y="229" on="1"/>
        <pt x="86" y="425" on="1"/>
        <pt x="17" y="436" on="1"/>
        <pt x="17" y="475" on="1"/>
        <pt x="240" y="475" on="1"/>
        <pt x="240" y="436" on="1"/>
        <pt x="179" y="425" on="1"/>
        <pt x="275" y="286" on="1"/>
        <pt x="382" y="423" on="1"/>
        <pt x="316" y="436" on="1"/>
        <pt x="316" y="475" on="1"/>
        <pt x="503" y="475" on="1"/>
        <pt x="503" y="436" on="1"/>
        <pt x="444" y="425" on="1"/>
        <pt x="301" y="249" on="1"/>
        <pt x="440" y="50" on="1"/>
        <pt x="516" y="36" on="1"/>
        <pt x="516" y="0" on="1"/>
        <pt x="272" y="0" on="1"/>
        <pt x="272" y="36" on="1"/>
        <pt x="343" y="49" on="1"/>
        <pt x="245" y="192" on="1"/>
        <pt x="135" y="49" on="1"/>
      </contour>
    </TTGlyph>
    <TTGlyph name="y" xMin="0" yMin="-249" xMax="512" yMax="475">
      <contour>
        <pt x="92" y="-249" on="1"/>
        <pt x="55" y="-249" on="0"/>
        <pt x="0" y="-212" on="0"/>
        <pt x="0" y="-183" on="1"/>
        <pt x="5" y="-161" on="0"/>
        <pt x="44" y="-139" on="0"/>
        <pt x="67" y="-139" on="1"/>
        <pt x="87" y="-139" on="0"/>
        <pt x="121" y="-156" on="0"/>
        <pt x="141" y="-177" on="1"/>
        <pt x="146" y="-182" on="1"/>
        <pt x="178" y="-155" on="0"/>
        <pt x="222" y="-78" on="0"/>
        <pt x="236" y="-38" on="1"/>
        <pt x="240" y="-26" on="1"/>
        <pt x="59" y="431" on="1"/>
        <pt x="4" y="439" on="1"/>
        <pt x="4" y="475" on="1"/>
        <pt x="244" y="475" on="1"/>
        <pt x="244" y="438" on="1"/>
        <pt x="156" y="428" on="1"/>
        <pt x="281" y="87" on="1"/>
        <pt x="404" y="427" on="1"/>
        <pt x="317" y="439" on="1"/>
        <pt x="317" y="475" on="1"/>
        <pt x="512" y="475" on="1"/>
        <pt x="512" y="439" on="1"/>
        <pt x="458" y="428" on="1"/>
        <pt x="297" y="3" on="1"/>
        <pt x="247" y="-130" on="0"/>
        <pt x="154" y="-249" on="0"/>
      </contour>
    </TTGlyph>
    <TTGlyph name="z" xMin="29" yMin="0" xMax="431" yMax="475">
      <contour>
        <pt x="43" y="475" on="1"/>
        <pt x="416" y="475" on="1"/>
        <pt x="416" y="439" on="1"/>
        <pt x="131" y="42" on="1"/>
        <pt x="349" y="42" on="1"/>
        <pt x="379" y="163" on="1"/>
        <pt x="431" y="163" on="1"/>
        <pt x="421" y="0" on="1"/>
        <pt x="29" y="0" on="1"/>
        <pt x="29" y="35" on="1"/>
        <pt x="315" y="432" on="1"/>
        <pt x="114" y="432" on="1"/>
        <pt x="87" y="321" on="1"/>
        <pt x="35" y="325" on="1"/>
      </contour>
    </TTGlyph>
    <TTGlyph name="zero" xMin="41" yMin="-13" xMax="460" yMax="659">
      <contour>
        <pt x="133" y="322" on="1"/>
        <pt x="133" y="206" on="0"/>
        <pt x="166" y="80" on="0"/>
        <pt x="220" y="32" on="0"/>
        <pt x="251" y="32" on="1"/>
        <pt x="281" y="32" on="0"/>
        <pt x="334" y="81" on="0"/>
        <pt x="367" y="207" on="0"/>
        <pt x="367" y="322" on="1"/>
        <pt x="367" y="439" on="0"/>
        <pt x="334" y="565" on="0"/>
        <pt x="281" y="614" on="0"/>
        <pt x="251" y="614" on="1"/>
        <pt x="228" y="614" on="0"/>
        <pt x="185" y="588" on="0"/>
        <pt x="152" y="524" on="0"/>
        <pt x="133" y="410" on="0"/>
      </contour>
      <contour>
        <pt x="251" y="659" on="1"/>
        <pt x="304" y="659" on="0"/>
        <pt x="399" y="594" on="0"/>
        <pt x="460" y="446" on="0"/>
        <pt x="460" y="322" on="1"/>
        <pt x="460" y="199" on="0"/>
        <pt x="399" y="52" on="0"/>
        <pt x="304" y="-13" on="0"/>
        <pt x="251" y="-13" on="1"/>
        <pt x="198" y="-13" on="0"/>
        <pt x="101" y="52" on="0"/>
        <pt x="41" y="199" on="0"/>
        <pt x="41" y="322" on="1"/>
        <pt x="41" y="446" on="0"/>
        <pt x="101" y="594" on="0"/>
        <pt x="198" y="659" on="0"/>
      </contour>
    </TTGlyph>
</ttFont>
